<svg width="25" height="20" viewBox="0 0 25 20" fill="none" xmlns="http://www.w3.org/2000/svg">
<path d="M24.0118 12.9847L20.2361 16.7604C19.8846 17.1119 19.3148 17.1119 18.9633 16.7604L15.1875 12.9847C14.8361 12.6332 14.8361 12.0633 15.1875 11.7119L15.5934 11.306C15.952 10.9475 16.5359 10.9558 16.8841 11.3245L18.3997 12.9292V6.09975H11.3666C11.1279 6.09974 10.899 6.00493 10.7302 5.83617L10.1302 5.23617C9.56322 4.66917 9.96477 3.69975 10.7666 3.69975H19.8997C20.3967 3.69975 20.7997 4.10269 20.7997 4.59975V12.9292L22.3153 11.3245C22.6635 10.9558 23.2474 10.9475 23.606 11.306L24.0119 11.7119C24.3633 12.0633 24.3633 12.6332 24.0118 12.9847ZM14.0691 13.5633C13.9856 13.4798 13.8863 13.4135 13.7772 13.3682C13.668 13.323 13.5509 13.2997 13.4327 13.2998H6.39968V6.47029L7.91528 8.07499C8.2635 8.44365 8.84738 8.45202 9.20599 8.0934L9.61182 7.68758C9.9633 7.33609 9.9633 6.76624 9.61182 6.41479L5.83609 2.6391C5.4846 2.28762 4.91475 2.28762 4.5633 2.6391L0.787541 6.41483C0.436054 6.76632 0.436054 7.33617 0.787541 7.68762L1.19337 8.09344C1.55194 8.45202 2.13585 8.44369 2.48408 8.07503L3.99968 6.47029V14.7998C3.99968 15.2968 4.40262 15.6998 4.89968 15.6998H14.0328C14.8346 15.6998 15.2361 14.7303 14.6692 14.1633L14.0691 13.5633Z" fill="#1B4CA1"/>
</svg>
