<svg width="25" height="25" viewBox="0 0 25 25" fill="none" xmlns="http://www.w3.org/2000/svg">
<g clip-path="url(#clip0_1426_53520)">
<path d="M12.5 2.5C6.97 2.5 2.5 6.97 2.5 12.5C2.5 18.03 6.97 22.5 12.5 22.5C18.03 22.5 22.5 18.03 22.5 12.5C22.5 6.97 18.03 2.5 12.5 2.5ZM12.5 20.5C8.09 20.5 4.5 16.91 4.5 12.5C4.5 8.09 8.09 4.5 12.5 4.5C16.91 4.5 20.5 8.09 20.5 12.5C20.5 16.91 16.91 20.5 12.5 20.5ZM16.09 7.5L12.5 11.09L8.91 7.5L7.5 8.91L11.09 12.5L7.5 16.09L8.91 17.5L12.5 13.91L16.09 17.5L17.5 16.09L13.91 12.5L17.5 8.91L16.09 7.5Z" fill="white"/>
</g>
<defs>
<clipPath id="clip0_1426_53520">
<rect width="24" height="24" fill="white" transform="translate(0.5 0.5)"/>
</clipPath>
</defs>
</svg>
