<svg width="25" height="25" viewBox="0 0 25 25" fill="none" xmlns="http://www.w3.org/2000/svg">
<g id="assignment">
<mask id="mask0_559_52325" style="mask-type:alpha" maskUnits="userSpaceOnUse" x="0" y="0" width="25" height="25">
<rect id="Bounding box" x="0.5" y="0.5" width="24" height="24" fill="#D9D9D9"/>
</mask>
<g mask="url(#mask0_559_52325)">
<path id="assignment_2" d="M5.5 21.5C4.95 21.5 4.47917 21.3042 4.0875 20.9125C3.69583 20.5208 3.5 20.05 3.5 19.5V5.5C3.5 4.95 3.69583 4.47917 4.0875 4.0875C4.47917 3.69583 4.95 3.5 5.5 3.5H9.7C9.91667 2.9 10.2792 2.41667 10.7875 2.05C11.2958 1.68333 11.8667 1.5 12.5 1.5C13.1333 1.5 13.7042 1.68333 14.2125 2.05C14.7208 2.41667 15.0833 2.9 15.3 3.5H19.5C20.05 3.5 20.5208 3.69583 20.9125 4.0875C21.3042 4.47917 21.5 4.95 21.5 5.5V19.5C21.5 20.05 21.3042 20.5208 20.9125 20.9125C20.5208 21.3042 20.05 21.5 19.5 21.5H5.5ZM5.5 19.5H19.5V5.5H5.5V19.5ZM7.5 17.5H14.5V15.5H7.5V17.5ZM7.5 13.5H17.5V11.5H7.5V13.5ZM7.5 9.5H17.5V7.5H7.5V9.5ZM12.5 4.75C12.7167 4.75 12.8958 4.67917 13.0375 4.5375C13.1792 4.39583 13.25 4.21667 13.25 4C13.25 3.78333 13.1792 3.60417 13.0375 3.4625C12.8958 3.32083 12.7167 3.25 12.5 3.25C12.2833 3.25 12.1042 3.32083 11.9625 3.4625C11.8208 3.60417 11.75 3.78333 11.75 4C11.75 4.21667 11.8208 4.39583 11.9625 4.5375C12.1042 4.67917 12.2833 4.75 12.5 4.75Z" fill="white"/>
</g>
</g>
</svg>
