<?xml version="1.0" encoding="UTF-8"?>
<svg width="24px" height="24px" viewBox="0 0 24 24" version="1.1" xmlns="http://www.w3.org/2000/svg" xmlns:xlink="http://www.w3.org/1999/xlink">
    <title>Icons/Hubs/competency passbook</title>
    <g id="Icons/Hubs/competency-passbook" stroke="none" stroke-width="1" fill="none" fill-rule="evenodd">
        <rect id="Size" fill="#D8D8D8" opacity="0" x="0" y="0" width="24" height="24"></rect>
        <path d="M21,4 C22.1,4 23,4.9 23,6 L23,19 C23,20.1 22.1,21 21,21 L3,21 C1.9,21 1,20.1 1,19 L1,6 C1,4.9 1.9,4 3,4 Z M20,6 L12,6 L12,19 L20,19 C20.55,19 21,18.55 21,18 L21,7 C21,6.45 20.55,6 20,6 Z" id="Combined-Shape" fill="#0074B6"></path>
        <path d="M19.25,9.5 L13.75,9.5 C13.34,9.5 13,9.84 13,10.25 C13,10.66 13.34,11 13.75,11 L19.25,11 C19.66,11 20,10.66 20,10.25 C20,9.84 19.66,9.5 19.25,9.5 Z M19.25,12 L13.75,12 C13.34,12 13,12.34 13,12.75 C13,13.16 13.34,13.5 13.75,13.5 L19.25,13.5 C19.66,13.5 20,13.16 20,12.75 C20,12.34 19.66,12 19.25,12 Z M19.25,14.5 L13.75,14.5 C13.34,14.5 13,14.84 13,15.25 C13,15.66 13.34,16 13.75,16 L19.25,16 C19.66,16 20,15.66 20,15.25 C20,14.84 19.66,14.5 19.25,14.5 Z" id="Combined-Shape" fill="#0074B6" opacity="0.5"></path>
    </g>
</svg>