<svg width="32" height="28" viewBox="0 0 32 28" fill="none" xmlns="http://www.w3.org/2000/svg">
<path d="M14.3414 27.5582V25.2718H27.3464V13.6874C27.3464 10.5452 26.2331 7.87977 24.0064 5.691C21.7797 3.50224 19.068 2.40785 15.8714 2.40785C12.6748 2.40785 9.96315 3.50224 7.73644 5.691C5.50975 7.87977 4.39641 10.5452 4.39641 13.6874V22.9854H3.63141C2.78991 22.9854 2.06954 22.6869 1.47029 22.0899C0.871036 21.4929 0.571411 20.7752 0.571411 19.9369V16.8883C0.571411 16.3549 0.705286 15.8531 0.973036 15.3831C1.24079 14.9132 1.61691 14.5384 2.10141 14.259L2.21616 12.2393C2.42016 10.5118 2.92379 8.91137 3.72704 7.43792C4.53029 5.96447 5.53754 4.68155 6.74879 3.58916C7.96004 2.49677 9.34979 1.64572 10.918 1.03602C12.4863 0.426312 14.1374 0.12146 15.8714 0.12146C17.6054 0.12146 19.2502 0.426312 20.8057 1.03602C22.3612 1.64572 23.7509 2.49042 24.9749 3.5701C26.1989 4.64979 27.2062 5.92636 27.9967 7.39981C28.7872 8.87327 29.2972 10.4737 29.5267 12.2012L29.6414 14.1828C30.1259 14.4114 30.502 14.7544 30.7698 15.2117C31.0375 15.6689 31.1714 16.1516 31.1714 16.6597V20.1655C31.1714 20.6736 31.0375 21.1563 30.7698 21.6136C30.502 22.0708 30.1259 22.4138 29.6414 22.6424V25.2718C29.6414 25.9005 29.4167 26.4388 28.9673 26.8866C28.5178 27.3343 27.9775 27.5582 27.3464 27.5582H14.3414ZM11.2747 16.5073C10.9477 16.5073 10.6758 16.3971 10.459 16.1767C10.2423 15.9563 10.1339 15.6832 10.1339 15.3574C10.1339 15.0316 10.2445 14.7607 10.4657 14.5448C10.687 14.3289 10.9611 14.2209 11.2881 14.2209C11.6151 14.2209 11.887 14.3311 12.1038 14.5515C12.3205 14.7719 12.4289 15.045 12.4289 15.3708C12.4289 15.6966 12.3183 15.9674 12.0971 16.1834C11.8759 16.3993 11.6017 16.5073 11.2747 16.5073ZM20.4547 16.5073C20.1277 16.5073 19.8558 16.3971 19.639 16.1767C19.4223 15.9563 19.3139 15.6832 19.3139 15.3574C19.3139 15.0316 19.4245 14.7607 19.6457 14.5448C19.867 14.3289 20.1411 14.2209 20.4681 14.2209C20.7951 14.2209 21.067 14.3311 21.2838 14.5515C21.5005 14.7719 21.6089 15.045 21.6089 15.3708C21.6089 15.6966 21.4983 15.9674 21.2771 16.1834C21.0559 16.3993 20.7817 16.5073 20.4547 16.5073ZM6.72966 14.5257C6.55116 11.8329 7.36716 9.52108 9.17766 7.59035C10.9882 5.65961 13.2449 4.69425 15.9479 4.69425C18.1664 4.69425 20.0917 5.42462 21.7237 6.88538C23.3557 8.34613 24.3502 10.1689 24.7072 12.3537C22.4377 12.3283 20.3658 11.6932 18.4915 10.4483C16.6173 9.20352 15.1666 7.56494 14.1394 5.53259C13.7386 7.56494 12.8815 9.375 11.5683 10.9628C10.255 12.5506 8.64216 13.7382 6.72966 14.5257Z" fill="white"/>
</svg>
