<svg width="51" height="51" viewBox="0 0 51 51" fill="none" xmlns="http://www.w3.org/2000/svg">
<g clip-path="url(#clip0_332_8890)">
<path d="M26.6331 10.2282C27.0704 9.58453 27.1332 8.72279 26.7183 8.0042C26.4411 7.52412 25.9846 7.1738 25.4491 7.03033C24.9137 6.88685 24.3431 6.96196 23.863 7.23914C23.383 7.51631 23.0326 7.97285 22.8892 8.50831C22.7457 9.04377 22.8208 9.6143 23.098 10.0944C23.5186 10.8229 24.3091 11.1987 25.0947 11.1296C26.6181 15.422 27.1858 18.9433 23.4516 21.9215C23.4516 21.9215 27.7329 26.793 32.8848 23.8185C38.0368 20.8441 35.4108 15.0897 35.4108 15.0897C31.3545 17.7168 27.968 12.6667 26.6331 10.2282Z" fill="#F19534"/>
<path d="M11.769 18.8104C10.9929 18.8673 10.2152 18.4907 9.80035 17.7721C9.52317 17.2921 9.44806 16.7215 9.59154 16.1861C9.73502 15.6506 10.0853 15.1941 10.5654 14.9169C11.0455 14.6397 11.616 14.5646 12.1515 14.7081C12.6869 14.8516 13.1435 15.2019 13.4207 15.682C13.8413 16.4105 13.7714 17.283 13.3188 17.9288C16.2744 21.3943 19.0401 23.6466 23.4864 21.9017C23.4864 21.9017 25.5647 28.0452 20.4127 31.0197C15.2607 33.9942 11.5943 28.8439 11.5943 28.8439C15.8936 26.6435 13.2133 21.1857 11.769 18.8104Z" fill="#F19534"/>
<path d="M32.8152 23.8597C32.8376 23.8467 32.8614 23.8363 32.8838 23.8234C34.3036 23.0037 35.1305 21.9726 35.5852 20.9111L32.8152 23.8597Z" fill="#FFCA28"/>
<path d="M32.0691 5.44869C31.1765 5.81484 30.8409 7.05957 31.3197 8.22196C31.6192 8.94747 32.1639 9.47175 32.7485 9.67464L33.5801 12.4932C33.5801 12.4932 36.0426 18.8658 32.0988 22.681C28.9464 25.731 23.7165 19.7561 22.1903 17.8591C22.6905 17.1061 22.759 16.1051 22.2752 15.2672C21.5962 14.0911 20.0941 13.6886 18.918 14.3676C17.7419 15.0466 17.3394 16.5488 18.0184 17.7249C18.5051 18.5678 19.418 19.0121 20.3297 18.9432C21.2608 21.1474 23.8975 28.3211 19.5258 29.9368C15.0872 31.5744 9.39802 25.7917 7.92218 24.1772C8.17735 23.4994 8.04355 22.6418 7.50911 21.9458C6.74042 20.9474 5.43718 20.6655 4.59748 21.3127C3.75777 21.96 3.70138 23.2922 4.46863 24.288C5.0267 25.0135 5.8694 25.3591 6.61 25.2464L21.1181 43.071C21.1181 43.071 25.137 43.6581 33.1559 39.0284C41.1748 34.3987 42.6758 30.6246 42.6758 30.6246L34.4706 9.09147C34.8278 8.5272 34.8818 7.69043 34.5534 6.89204C34.0757 5.72572 32.9642 5.0811 32.0691 5.44869Z" fill="#FFCA28"/>
<path d="M30.3656 33.9671C31.7031 33.1949 32.0412 31.2764 31.1207 29.6821C30.2002 28.0878 28.3697 27.4213 27.0322 28.1936C25.6946 28.9658 25.3566 30.8843 26.277 32.4786C27.1975 34.0729 29.028 34.7394 30.3656 33.9671Z" fill="#1B3A4B"/>
<path d="M27.4442 28.9058C27.599 28.9557 27.7941 29.0984 27.8304 29.5747C27.8667 30.051 27.1933 31.1128 27.0757 31.3167C26.9594 31.523 26.8153 31.5432 26.7362 31.5325C26.3545 31.4744 26.1812 30.9446 26.1838 30.5585C26.1865 29.7248 26.583 28.6372 27.4442 28.9058Z" fill="#006466"/>
<path d="M29.1415 32.2606C28.944 32.5503 28.2776 33.4689 28.8476 33.773C29.1839 33.9535 29.6134 33.8647 29.9527 33.6886C30.292 33.5126 30.5574 33.2201 30.7632 32.8991C31.7394 31.3741 30.7574 29.4148 30.4031 29.427C30.0384 29.4386 30.072 29.9331 30.0225 30.1805C29.8675 30.9248 29.5682 31.6315 29.1415 32.2606Z" fill="#144552"/>
<path d="M40.675 21.0165C39.824 18.6467 38.0718 18.9423 38.0718 18.9423C38.0718 18.9423 37.0442 19.3101 38.0005 21.9771C38.9554 24.6416 39.983 24.2738 39.983 24.2738C39.983 24.2738 41.5235 23.3877 40.675 21.0165Z" fill="#1B3A4B"/>
<path d="M38.908 19.4363C39.5075 19.6936 39.4933 20.5936 39.1013 21.4134C38.9859 21.6557 38.7036 21.7524 38.6031 21.6645C38.3178 21.4115 38.1573 21.0301 38.1228 20.6489C38.0145 19.508 38.6044 19.3066 38.908 19.4363Z" fill="#006466"/>
<path d="M13.7764 36.6312C12.1485 34.7132 13.2817 33.3396 13.2817 33.3396C13.2817 33.3396 14.114 32.6336 15.9455 34.7953C17.7757 36.9545 16.9433 37.6605 16.9433 37.6605C16.9433 37.6605 15.4032 38.5531 13.7764 36.6312Z" fill="#1B3A4B"/>
<path d="M14.1449 33.813C14.6216 33.8692 14.6729 34.2739 14.5524 34.6452C14.4172 35.0713 14.3635 35.4836 14.2907 35.9202C14.2792 35.9865 14.2656 36.0606 14.2131 36.1075C14.1131 36.1984 13.9537 36.1347 13.8518 36.0443C13.564 35.7927 13.3714 35.4133 13.364 35.0329C13.3414 33.9486 13.9596 33.7906 14.1449 33.813Z" fill="#006466"/>
<path d="M37.3746 25.6933C37.7672 26.7695 37.3759 27.9005 36.4973 28.2221C35.6188 28.5437 35.0285 27.7739 34.6358 26.6976C34.2432 25.6214 34.1965 24.6504 35.0726 24.3303C35.9511 24.0087 36.9834 24.6195 37.3746 25.6933Z" fill="#4D194D"/>
<path d="M20.0787 35.6791C20.8144 36.5573 21.9896 36.7839 22.7074 36.1838C23.4251 35.5838 23.0536 34.6876 22.3179 33.8095C21.5821 32.9314 20.7646 32.4054 20.0493 33.0041C19.334 33.6027 19.3469 34.8021 20.0787 35.6791Z" fill="#4D194D"/>
<path d="M20.8588 34.3598C20.795 34.6684 20.5893 35.3342 20.2518 35.1114C19.791 34.8072 19.7137 33.9899 19.9284 33.5808C20.1431 33.1717 20.5167 33.1814 20.6745 33.3456C20.8723 33.5563 20.9142 34.0824 20.8588 34.3598Z" fill="#FFA8A4" fill-opacity="0.1"/>
<path d="M35.3672 26.8163C35.0995 26.9211 34.5826 26.089 34.8593 25.0407C34.9913 24.5402 35.662 24.6568 35.842 25.2326C36.0125 25.7806 35.8574 26.626 35.3672 26.8163Z" fill="#FFA8A4" fill-opacity="0.1"/>
<path d="M41.2386 27.1254C40.1798 28.7312 37.9104 32.6904 31.6022 36.3324C25.2941 39.9744 20.7306 39.9602 18.8106 40.0742C18.8106 40.0742 18.4411 40.6688 18.6133 40.9671L19.9355 43.2572C20.1121 43.563 20.4359 43.7507 20.7899 43.7552C22.3498 43.7696 26.8315 43.3436 33.448 39.5236C40.0645 35.7036 42.6742 32.0353 43.4417 30.6771C43.527 30.5262 43.5715 30.3556 43.5708 30.1821C43.5701 30.0087 43.5242 29.8385 43.4376 29.6882L42.1155 27.3982C41.9382 27.1027 41.2386 27.1254 41.2386 27.1254Z" fill="#FFCA28"/>
<path d="M25.7583 40.2505C26.5334 39.9853 26.7792 39.923 26.9559 40.3382C27.2997 41.1575 25.611 41.8904 24.5315 42.1855C22.3002 42.7941 21.5973 42.4838 21.3202 42.0039C21.0661 41.5638 21.3741 41.3164 22.0025 41.1989C22.7544 41.0599 23.9345 40.8758 25.7583 40.2505Z" fill="#FFF59D"/>
<path d="M41.5286 27.6274C41.5286 27.6274 38.7551 32.3384 31.6611 36.4341C24.5672 40.5298 19.1006 40.5762 19.1006 40.5762" stroke="#F19534" stroke-width="4" stroke-miterlimit="10" stroke-linecap="round"/>
<path d="M13.8221 26.8294C14.5994 25.1209 14.3329 23.017 12.8389 20.2858C12.7032 20.0392 12.7312 19.9269 12.8544 19.8359C13.0528 19.6915 13.1982 19.8629 13.2746 20.0011C14.8946 22.9447 15.5735 24.9762 14.6979 26.8476C14.6545 26.939 14.3207 27.5494 13.977 27.4595C13.5695 27.3566 13.772 26.9379 13.8221 26.8294Z" fill="#FFCA28"/>
<path d="M10.1478 17.668C9.84568 17.2423 9.48212 16.3714 10.4507 15.3215C10.7346 15.0151 11.0461 15.0607 11.1619 15.1695C11.4509 15.4403 11.2371 15.7361 11.1297 15.8545C10.3916 16.6719 10.6081 17.1503 10.5881 17.5463C10.5682 17.9424 10.2417 17.7961 10.1478 17.668Z" fill="#FFCA28"/>
<path d="M26.2207 18.8748C26.8038 17.1226 26.9122 15.4786 25.8753 12.4768C25.7847 12.2108 25.817 12.106 25.9492 12.0363C26.1634 11.9192 26.2868 12.1099 26.3419 12.2571C27.5617 15.392 27.6152 16.4551 27.0839 18.94C27.0236 19.2202 26.7145 19.6208 26.3752 19.5614C26.0697 19.509 26.1491 19.0952 26.2207 18.8748Z" fill="#FFCA28"/>
<path d="M23.4534 10.0156C23.1513 9.58998 22.7878 8.71909 23.7564 7.6692C24.0403 7.36274 24.3517 7.40836 24.4676 7.51717C24.7565 7.78797 24.5427 8.08379 24.4354 8.20214C23.6972 9.01953 23.9137 9.49791 23.8938 9.89401C23.8763 10.2887 23.5473 10.1438 23.4534 10.0156Z" fill="#FFCA28"/>
<path d="M18.1363 31.649C14.4905 32.0067 11.6662 29.0788 10.3566 27.8556C10.1835 27.6937 10.1057 27.4899 10.2677 27.3169C10.4297 27.1438 10.6197 27.2031 10.7953 27.3637C11.7451 28.2508 15.0965 31.1098 18.3197 30.6115C18.5542 30.5755 18.9574 30.5848 18.9752 30.9889C18.9846 31.252 18.7233 31.5919 18.1363 31.649Z" fill="#FFF59D"/>
<path d="M6.68866 22.6791C6.38289 22.471 6.16779 22.2306 5.2271 22.3526C4.9897 22.3836 4.76096 22.2803 4.69833 22.0512C4.63571 21.8221 4.74849 21.5581 5.06563 21.4413C6.09634 21.0617 6.85006 21.8963 7.08077 22.2041C7.30182 22.5008 6.99691 22.8857 6.68866 22.6791Z" fill="#FFF59D"/>
<path d="M34.368 22.2763C36.5007 19.2978 35.3772 15.3879 34.9727 13.6422C34.9189 13.4113 34.7814 13.2421 34.5506 13.2958C34.3197 13.3495 34.276 13.5438 34.3273 13.7761C34.6207 15.0423 35.4209 19.3742 33.3778 21.9164C33.2294 22.1015 33.0358 22.4553 33.3769 22.6728C33.6001 22.8124 34.025 22.7561 34.368 22.2763Z" fill="#FFF59D"/>
<path d="M32.3242 7.87814C32.2969 7.50932 32.1962 7.20279 32.7722 6.44916C32.9178 6.25905 32.9427 6.0093 32.7756 5.84053C32.6085 5.67176 32.3235 5.63742 32.0638 5.85367C31.2197 6.5565 31.5656 7.62654 31.7167 7.98021C31.8632 8.32001 32.3515 8.24696 32.3242 7.87814Z" fill="#FFF59D"/>
<path d="M19.0068 17.1978C18.979 16.7995 18.9996 16.2207 19.764 15.5406C20.057 15.2786 20.0707 15.0784 19.9145 14.8769C19.5921 14.4563 19.0439 14.8159 18.7797 15.0646C17.898 15.8919 18.1943 16.9276 18.3588 17.3101C18.5132 17.6751 19.037 17.5948 19.0068 17.1978Z" fill="#FFF59D"/>
</g>
<defs>
<clipPath id="clip0_332_8890">
<rect width="36.7505" height="36.7505" fill="white" transform="translate(0 18.375) rotate(-30)"/>
</clipPath>
</defs>
</svg>
