<svg width="18" height="21" viewBox="0 0 18 21" fill="none" xmlns="http://www.w3.org/2000/svg">
<path d="M16.499 2.16504H14.249V1.41504C14.249 1.21613 14.17 1.02536 14.0294 0.884709C13.8887 0.744057 13.6979 0.665039 13.499 0.665039C13.3001 0.665039 13.1093 0.744057 12.9687 0.884709C12.828 1.02536 12.749 1.21613 12.749 1.41504V2.16504H5.24902V1.41504C5.24902 1.21613 5.17001 1.02536 5.02935 0.884709C4.8887 0.744057 4.69794 0.665039 4.49902 0.665039C4.30011 0.665039 4.10935 0.744057 3.96869 0.884709C3.82804 1.02536 3.74902 1.21613 3.74902 1.41504V2.16504H1.49902C1.1012 2.16504 0.719668 2.32307 0.438363 2.60438C0.157059 2.88568 -0.000976562 3.26721 -0.000976562 3.66504V18.665C-0.000976562 19.0629 0.157059 19.4444 0.438363 19.7257C0.719668 20.007 1.1012 20.165 1.49902 20.165H16.499C16.8968 20.165 17.2784 20.007 17.5597 19.7257C17.841 19.4444 17.999 19.0629 17.999 18.665V3.66504C17.999 3.26721 17.841 2.88568 17.5597 2.60438C17.2784 2.32307 16.8968 2.16504 16.499 2.16504ZM3.74902 3.66504V4.41504C3.74902 4.61395 3.82804 4.80472 3.96869 4.94537C4.10935 5.08602 4.30011 5.16504 4.49902 5.16504C4.69794 5.16504 4.8887 5.08602 5.02935 4.94537C5.17001 4.80472 5.24902 4.61395 5.24902 4.41504V3.66504H12.749V4.41504C12.749 4.61395 12.828 4.80472 12.9687 4.94537C13.1093 5.08602 13.3001 5.16504 13.499 5.16504C13.6979 5.16504 13.8887 5.08602 14.0294 4.94537C14.17 4.80472 14.249 4.61395 14.249 4.41504V3.66504H16.499V6.66504H1.49902V3.66504H3.74902ZM16.499 18.665H1.49902V8.16504H16.499V18.665ZM10.124 11.54C10.124 11.7625 10.058 11.9801 9.93443 12.1651C9.81081 12.3501 9.63511 12.4943 9.42954 12.5794C9.22398 12.6646 8.99778 12.6868 8.77955 12.6434C8.56132 12.6 8.36086 12.4929 8.20353 12.3355C8.04619 12.1782 7.93905 11.9777 7.89564 11.7595C7.85223 11.5413 7.87451 11.3151 7.95966 11.1095C8.04481 10.904 8.189 10.7283 8.37401 10.6046C8.55901 10.481 8.77652 10.415 8.99902 10.415C9.29739 10.415 9.58354 10.5336 9.79452 10.7445C10.0055 10.9555 10.124 11.2417 10.124 11.54ZM14.249 11.54C14.249 11.7625 14.183 11.9801 14.0594 12.1651C13.9358 12.3501 13.7601 12.4943 13.5545 12.5794C13.349 12.6646 13.1228 12.6868 12.9045 12.6434C12.6863 12.6 12.4859 12.4929 12.3285 12.3355C12.1712 12.1782 12.064 11.9777 12.0206 11.7595C11.9772 11.5413 11.9995 11.3151 12.0847 11.1095C12.1698 10.904 12.314 10.7283 12.499 10.6046C12.684 10.481 12.9015 10.415 13.124 10.415C13.4224 10.415 13.7085 10.5336 13.9195 10.7445C14.1305 10.9555 14.249 11.2417 14.249 11.54ZM5.99902 15.29C5.99902 15.5125 5.93304 15.7301 5.80943 15.9151C5.68581 16.1001 5.51011 16.2443 5.30454 16.3294C5.09898 16.4146 4.87278 16.4368 4.65455 16.3934C4.43632 16.35 4.23586 16.2429 4.07853 16.0855C3.92119 15.9282 3.81405 15.7277 3.77064 15.5095C3.72723 15.2913 3.74951 15.0651 3.83466 14.8595C3.91981 14.654 4.064 14.4783 4.24901 14.3546C4.43401 14.231 4.65152 14.165 4.87402 14.165C5.17239 14.165 5.45854 14.2836 5.66952 14.4945C5.8805 14.7055 5.99902 14.9917 5.99902 15.29ZM10.124 15.29C10.124 15.5125 10.058 15.7301 9.93443 15.9151C9.81081 16.1001 9.63511 16.2443 9.42954 16.3294C9.22398 16.4146 8.99778 16.4368 8.77955 16.3934C8.56132 16.35 8.36086 16.2429 8.20353 16.0855C8.04619 15.9282 7.93905 15.7277 7.89564 15.5095C7.85223 15.2913 7.87451 15.0651 7.95966 14.8595C8.04481 14.654 8.189 14.4783 8.37401 14.3546C8.55901 14.231 8.77652 14.165 8.99902 14.165C9.29739 14.165 9.58354 14.2836 9.79452 14.4945C10.0055 14.7055 10.124 14.9917 10.124 15.29ZM14.249 15.29C14.249 15.5125 14.183 15.7301 14.0594 15.9151C13.9358 16.1001 13.7601 16.2443 13.5545 16.3294C13.349 16.4146 13.1228 16.4368 12.9045 16.3934C12.6863 16.35 12.4859 16.2429 12.3285 16.0855C12.1712 15.9282 12.064 15.7277 12.0206 15.5095C11.9772 15.2913 11.9995 15.0651 12.0847 14.8595C12.1698 14.654 12.314 14.4783 12.499 14.3546C12.684 14.231 12.9015 14.165 13.124 14.165C13.4224 14.165 13.7085 14.2836 13.9195 14.4945C14.1305 14.7055 14.249 14.9917 14.249 15.29Z" fill="#F3962F"/>
</svg>
