<svg width="14" height="12" viewBox="0 0 14 12" fill="none" xmlns="http://www.w3.org/2000/svg">
<path d="M7.12839 10.5795C7.02339 10.6845 6.83672 10.702 6.71422 10.5795C6.60922 10.4745 6.59172 10.2878 6.71422 10.1653L8.69172 8.18783L7.86922 7.36533L5.89172 9.34282C5.78089 9.45949 5.59422 9.45366 5.47755 9.34282C5.35505 9.22032 5.37255 9.03366 5.47755 8.92866L7.45505 6.95116L6.63255 6.12866L4.65505 8.10616C4.55005 8.21116 4.36339 8.22866 4.24089 8.10616C4.13005 7.99533 4.13005 7.80866 4.24089 7.69199L6.21839 5.71449L5.39005 4.89199L3.41255 6.86949C3.30755 6.97449 3.12089 6.99199 2.99839 6.86949C2.88755 6.75283 2.88755 6.57199 2.99839 6.45533L5.55339 3.90033L6.64422 4.98533C7.19839 5.53949 8.15505 5.53366 8.70922 4.98533C9.28089 4.41366 9.28089 3.49199 8.70922 2.92033L7.62422 1.83533L7.78755 1.67199C8.24255 1.21699 8.98339 1.21699 9.43839 1.67199L11.9117 4.14533C12.3667 4.60033 12.3667 5.34116 11.9117 5.79616L7.12839 10.5795ZM12.7342 6.62449C13.6442 5.71449 13.6442 4.23866 12.7342 3.32283L10.2609 0.849492C9.35089 -0.0605078 7.87505 -0.0605078 6.95922 0.849492L6.79589 1.01283L6.63255 0.849492C5.72255 -0.0605078 4.24672 -0.0605078 3.33089 0.849492L1.26589 2.91449C0.437554 3.74283 0.36172 5.03199 1.03255 5.94199L1.87839 5.09616C1.65089 4.65866 1.72672 4.10449 2.09422 3.73699L4.15922 1.67199C4.61422 1.21699 5.35505 1.21699 5.81005 1.67199L7.88672 3.74866C7.99172 3.85366 8.00922 4.04033 7.88672 4.16283C7.76422 4.28533 7.57755 4.26783 7.47255 4.16283L5.55339 2.24949L2.17005 5.62699C1.59839 6.19283 1.59839 7.12033 2.17005 7.69199C2.39755 7.91949 2.68922 8.05949 2.99839 8.10033C3.03922 8.40366 3.17339 8.69533 3.40672 8.92866C3.64005 9.16199 3.93172 9.29616 4.23505 9.33699C4.27589 9.64032 4.41005 9.93199 4.64339 10.1653C4.87672 10.3987 5.16839 10.5328 5.47172 10.5737C5.51255 10.8887 5.65255 11.1745 5.88005 11.402C6.15422 11.6762 6.52172 11.8278 6.91255 11.8278C7.30339 11.8278 7.67089 11.6762 7.94505 11.402L12.7342 6.62449Z" fill="white"/>
</svg>
