<svg width="39" height="40" viewBox="0 0 39 40" fill="none" xmlns="http://www.w3.org/2000/svg">
<path d="M27.5 36H29.5V28H27.5V36ZM28.5 26C28.7667 26 29 25.9 29.2 25.7C29.4 25.5 29.5 25.2667 29.5 25C29.5 24.7333 29.4 24.5 29.2 24.3C29 24.1 28.7667 24 28.5 24C28.2333 24 28 24.1 27.8 24.3C27.6 24.5 27.5 24.7333 27.5 25C27.5 25.2667 27.6 25.5 27.8 25.7C28 25.9 28.2333 26 28.5 26ZM8.5 24H15.85C16.2167 23.2333 16.6417 22.5167 17.125 21.85C17.6083 21.1833 18.15 20.5667 18.75 20H8.5V24ZM8.5 32H14.65C14.55 31.3333 14.5 30.6667 14.5 30C14.5 29.3333 14.55 28.6667 14.65 28H8.5V32ZM4.5 40C3.4 40 2.45833 39.6083 1.675 38.825C0.891667 38.0417 0.5 37.1 0.5 36V4C0.5 2.9 0.891667 1.95833 1.675 1.175C2.45833 0.391667 3.4 0 4.5 0H20.5L32.5 12V16.6C31.8667 16.4 31.2167 16.25 30.55 16.15C29.8833 16.05 29.2 16 28.5 16V14H18.5V4H4.5V36H15.85C16.2167 36.7667 16.6417 37.4833 17.125 38.15C17.6083 38.8167 18.15 39.4333 18.75 40H4.5ZM28.5 20C31.2667 20 33.625 20.975 35.575 22.925C37.525 24.875 38.5 27.2333 38.5 30C38.5 32.7667 37.525 35.125 35.575 37.075C33.625 39.025 31.2667 40 28.5 40C25.7333 40 23.375 39.025 21.425 37.075C19.475 35.125 18.5 32.7667 18.5 30C18.5 27.2333 19.475 24.875 21.425 22.925C23.375 20.975 25.7333 20 28.5 20Z" fill="#1B4CA1"/>
</svg>
