<?xml version="1.0" encoding="UTF-8"?>
<svg width="25px" height="24px" viewBox="0 0 25 24" version="1.1" xmlns="http://www.w3.org/2000/svg" xmlns:xlink="http://www.w3.org/1999/xlink">
    <title>Shape@2x</title>
    <g id="05-Consumption---Mobile-V5" stroke="none" stroke-width="1" fill="none" fill-rule="evenodd">
        <g id="12-Program-content-and-session-attadence" transform="translate(-182, -1238)" fill="#FFFFFF" fill-rule="nonzero">
            <g id="Group-3" transform="translate(166, 1222)">
                <g id="qr_code_scanner_FILL0_wght400_GRAD0_opsz48-Copy" transform="translate(16, 16)">
                    <path d="M0,5.19 L0,0 L5.21634518,0 L5.21634518,1.8 L1.80913706,1.8 L1.80913706,5.19 L0,5.19 Z M0,24 L0,18.81 L1.80913706,18.81 L1.80913706,22.2 L5.21634518,22.2 L5.21634518,24 L0,24 Z M18.9054822,24 L18.9054822,22.2 L22.3126904,22.2 L22.3126904,18.81 L24.1218274,18.81 L24.1218274,24 L18.9054822,24 Z M22.3126904,5.19 L22.3126904,1.8 L18.9054822,1.8 L18.9054822,0 L24.1218274,0 L24.1218274,5.19 L22.3126904,5.19 Z M18.9356345,18.87 L20.8352284,18.87 L20.8352284,20.76 L18.9356345,20.76 L18.9356345,18.87 Z M18.9356345,15.09 L20.8352284,15.09 L20.8352284,16.98 L18.9356345,16.98 L18.9356345,15.09 Z M17.0360406,16.98 L18.9356345,16.98 L18.9356345,18.87 L17.0360406,18.87 L17.0360406,16.98 Z M15.1364467,18.87 L17.0360406,18.87 L17.0360406,20.76 L15.1364467,20.76 L15.1364467,18.87 Z M13.2368528,16.98 L15.1364467,16.98 L15.1364467,18.87 L13.2368528,18.87 L13.2368528,16.98 Z M17.0360406,13.2 L18.9356345,13.2 L18.9356345,15.09 L17.0360406,15.09 L17.0360406,13.2 Z M15.1364467,15.09 L17.0360406,15.09 L17.0360406,16.98 L15.1364467,16.98 L15.1364467,15.09 Z M13.2368528,13.2 L15.1364467,13.2 L15.1364467,15.09 L13.2368528,15.09 L13.2368528,13.2 Z M20.8352284,3.24 L20.8352284,10.8 L13.2368528,10.8 L13.2368528,3.24 L20.8352284,3.24 Z M10.8548223,13.2 L10.8548223,20.76 L3.2564467,20.76 L3.2564467,13.2 L10.8548223,13.2 Z M10.8548223,3.24 L10.8548223,10.8 L3.2564467,10.8 L3.2564467,3.24 L10.8548223,3.24 Z M9.34720812,19.26 L9.34720812,14.7 L4.76406091,14.7 L4.76406091,19.26 L9.34720812,19.26 Z M9.34720812,9.3 L9.34720812,4.74 L4.76406091,4.74 L4.76406091,9.3 L9.34720812,9.3 Z M19.3276142,9.3 L19.3276142,4.74 L14.744467,4.74 L14.744467,9.3 L19.3276142,9.3 Z" id="Shape"></path>
                </g>
            </g>
        </g>
    </g>
</svg>