<svg width="20" height="20" viewBox="0 0 20 20" fill="none" xmlns="http://www.w3.org/2000/svg">
<path d="M18.6 15.2004H2.4V3.80044C2.4 3.46894 2.1315 3.20044 1.8 3.20044H0.6C0.2685 3.20044 0 3.46894 0 3.80044V16.4004C0 17.0631 0.537375 17.6004 1.2 17.6004H18.6C18.9315 17.6004 19.2 17.3319 19.2 17.0004V15.8004C19.2 15.4689 18.9315 15.2004 18.6 15.2004ZM17.4 4.40044H12.9728C12.171 4.40044 11.7694 5.36981 12.3364 5.93681L13.5514 7.15181L10.8 9.90356L8.04863 7.15219C7.57988 6.68344 6.82013 6.68344 6.35175 7.15219L3.77588 9.72807C3.5415 9.96244 3.5415 10.3423 3.77588 10.5767L4.62413 11.4249C4.8585 11.6593 5.23838 11.6593 5.47275 11.4249L7.2 9.69731L9.95138 12.4487C10.4201 12.9174 11.1799 12.9174 11.6483 12.4487L15.2483 8.84869L16.4633 10.0637C17.0303 10.6307 17.9996 10.2291 17.9996 9.42731V5.00044C18 4.66894 17.7315 4.40044 17.4 4.40044Z" fill="#1B4CA1"/>
</svg>
