<svg width="117" height="32" viewBox="0 0 117 32" fill="none" xmlns="http://www.w3.org/2000/svg">
<path fill-rule="evenodd" clip-rule="evenodd" d="M29.3813 11.8996C28.5416 11.7666 27.5953 11.6819 26.5406 11.6819C26.4205 11.6878 26.3022 11.6948 26.1851 11.7026C26.5389 11.0772 26.8599 10.5165 27.1601 9.8959C30.1256 9.43153 31.8789 9.76885 31.8789 9.76885C31.8789 9.76885 31.1403 10.3081 29.3813 11.8996ZM25.5178 11.7588C24.8147 11.8304 24.174 11.9365 23.5908 12.0685C23.791 11.6122 23.955 11.1302 24.0917 10.6346C24.3727 10.5222 24.2363 10.0316 24.5467 9.92538C25.0713 9.77217 26.989 9.27956 27.4624 9.18474C27.1702 9.78235 26.6694 12.0838 25.5178 11.7588ZM24.7413 6.9286C27.2787 5.52255 28.9705 5.28356 28.9705 5.28356C28.9705 5.28356 28.2039 6.20356 26.7077 9.29382C26.2308 9.37951 25.8122 9.48764 25.2909 9.62563C24.9273 9.74117 24.5828 9.86214 24.2543 9.98719C24.4915 8.94328 24.6281 7.94331 24.7413 6.9286ZM30.052 12.0202C32.2532 9.98329 33.1688 9.52881 33.1688 9.52881C33.1688 9.52881 31.0458 8.68224 27.4624 9.18474C27.479 9.15013 27.4956 9.11532 27.512 9.08089C29.2317 5.47966 30.1204 4.52961 30.1204 4.52961C30.1204 4.52961 27.917 4.49347 24.8182 6.14773C25.2494 2.23181 25.7665 1.04858 25.7665 1.04858C25.7665 1.04858 23.0348 2.01118 20.1152 6.19234C19.963 6.43408 19.8211 6.67116 19.6873 6.90425L19.7813 7.85106C19.9398 7.54931 19.7954 7.64327 19.9873 7.32307C22.4668 3.57652 24.7944 2.2806 24.7944 2.2806C24.7944 2.2806 24.5248 3.21277 24.1395 6.4822C23.6731 6.75495 23.2697 7.06488 22.7729 7.41912C21.4043 8.49888 20.7411 9.46605 20.0378 10.432L20.117 10.5012C20.7402 9.55354 21.3456 8.72988 22.7133 7.60152C23.205 7.23178 24.3622 6.42647 24.8182 6.14773C24.705 7.1246 24.5033 8.9799 24.2543 9.98719C22.5606 10.7065 21.0748 11.7056 20.243 12.4974C20.9601 11.7441 22.6004 11.08 24.2543 10.3358C24.1109 10.7991 23.8024 11.6488 23.5908 12.0685C22.3475 12.4167 21.0521 12.9702 20.3371 13.4448L20.3957 13.8719C20.9774 13.4491 22.0253 12.7958 23.1042 12.4469C22.9906 13.1993 22.4119 14.3819 20.463 14.7116L20.5137 15.2218C21.9791 14.7575 22.6288 13.7232 23.2845 12.5288C23.8433 12.3873 25.4927 11.7866 26.1851 11.7026C25.1209 13.7588 21.6231 16.8351 20.5397 15.4831L20.5896 15.9849C23.1822 16.0433 24.5671 14.3651 25.8469 12.2776C25.9202 12.2715 25.9938 12.2655 26.0686 12.2602C26.5406 11.6819 29.2481 11.9091 30.052 12.0202C29.9095 12.1539 28.9411 13.3255 28.7874 13.473C26.6666 15.5092 22.4119 18.5846 20.6255 16.509L20.6805 16.8994C24.1337 18.0016 26.8241 15.1306 29.1595 12.8662C29.2833 12.7462 29.4028 12.7127 29.5202 12.6008C31.708 13.0094 32.8402 13.5836 32.8402 13.5836C32.8402 13.5836 31.7323 13.9049 28.7404 15.5748C26.2892 16.9428 23.4431 18.6513 20.7027 17.1241L20.7635 17.7355C23.7221 19.1847 26.8104 17.3163 29.4806 15.8087C32.9239 13.8648 34.1883 13.606 34.1883 13.606C34.1883 13.606 32.7872 12.5722 30.052 12.0202Z" fill="#264092"/>
<path fill-rule="evenodd" clip-rule="evenodd" d="M3.52523 9.76888C3.52523 9.76888 5.27853 9.43156 8.24399 9.89593C8.54418 10.5165 8.86523 11.0772 9.21894 11.7026C9.10188 11.6948 8.9836 11.6877 8.86336 11.6818C7.80878 11.6818 6.86246 11.7666 6.02282 11.8997C4.26381 10.3081 3.52523 9.76888 3.52523 9.76888ZM7.94166 9.18478C8.41505 9.27959 10.3328 9.77211 10.8574 9.92541C11.1678 10.0316 11.0314 10.5222 11.3124 10.6347C11.4491 11.1302 11.613 11.6121 11.8133 12.0684C11.2301 11.9366 10.5894 11.8305 9.88632 11.7588C8.7347 12.0838 8.23389 9.78238 7.94166 9.18478ZM11.1498 9.98723C10.8213 9.86217 10.4768 9.74111 10.1131 9.62556C9.59193 9.48767 9.17328 9.37954 8.69643 9.29376C7.20017 6.20359 6.43361 5.2836 6.43361 5.2836C6.43361 5.2836 8.12544 5.52249 10.6628 6.92863C10.776 7.94325 10.9125 8.94322 11.1498 9.98723ZM1.21582 13.606C1.21582 13.606 2.4802 13.8647 5.92335 15.8088C8.59368 17.3164 11.682 19.1846 14.6405 17.7356L14.7014 17.1241C11.961 18.6514 9.11489 16.9427 6.66371 15.5747C3.67177 13.905 2.56385 13.5836 2.56385 13.5836C2.56385 13.5836 3.6961 13.0093 5.88386 12.6008C6.0013 12.7127 6.1208 12.7462 6.24459 12.8663C8.58002 15.1305 11.2704 18.0017 14.7236 16.8995L14.8582 16.4281C13.0719 18.5037 8.7375 15.5092 6.61664 13.473C6.463 13.3254 5.4946 12.1539 5.35208 12.0203C6.15598 11.909 8.86336 11.6818 9.33554 12.2601C9.4103 12.2654 9.48376 12.2715 9.55721 12.2776C10.837 14.3651 12.2219 16.0434 14.8145 15.985L14.8644 15.483C13.781 16.8352 10.4199 13.8083 9.21894 11.7026C9.91139 11.7865 11.5452 12.4541 12.1039 12.5957C12.7597 13.79 13.425 14.7575 14.8904 15.2218L14.9411 14.7116C12.9922 14.3819 12.4135 13.1993 12.2999 12.4469C13.3788 12.7957 14.4267 13.4491 15.0084 13.872L15.067 13.4449C14.352 12.9701 13.0566 12.4166 11.8133 12.0684C11.6017 11.6488 11.2932 10.799 11.1498 10.3359C12.8037 11.08 14.4439 11.744 15.1611 12.4973C14.3293 11.7057 12.8434 10.7066 11.1498 9.98723C10.9008 8.97993 10.6991 7.12463 10.5859 6.14777C11.0419 6.42651 12.1991 7.23181 12.6908 7.60146C14.0585 8.72992 14.6639 9.55348 15.287 10.5012L15.3663 10.4319C14.663 9.46608 13.9997 8.49882 12.6312 7.41916C12.1344 7.06481 11.7309 6.75498 11.2646 6.48223C10.8792 3.2128 10.6096 2.28063 10.6096 2.28063C10.6096 2.28063 12.9373 3.57646 15.4167 7.32311C15.6087 7.64321 15.4643 7.54935 15.6228 7.8511L15.7168 6.90429C15.583 6.6711 15.4411 6.43402 15.2889 6.19228C12.3693 2.01122 9.6376 1.04852 9.6376 1.04852C9.6376 1.04852 10.1547 2.23175 10.5859 6.14777C7.48707 4.49341 5.28368 4.52965 5.28368 4.52965C5.28368 4.52965 6.17235 5.4796 7.89206 9.08093C7.90853 9.11535 7.92509 9.15007 7.94166 9.18478C4.35832 8.68227 2.23531 9.52885 2.23531 9.52885C2.23531 9.52885 3.15094 9.98323 5.35208 12.0203C2.61691 12.5722 1.21582 13.606 1.21582 13.606Z" fill="#264092"/>
<path fill-rule="evenodd" clip-rule="evenodd" d="M15.5042 13.6597C15.5042 14.9301 16.5174 15.9599 17.7673 15.9599C19.0172 15.9599 20.0305 14.9301 20.0305 13.6597C20.0305 12.3895 19.0172 11.3596 17.7673 11.3596C16.5174 11.3596 15.5042 12.3895 15.5042 13.6597Z" fill="url(#paint0_radial_388_872)"/>
<path fill-rule="evenodd" clip-rule="evenodd" d="M20.4946 21.0923L17.7358 13.7587L14.9771 21.0923L16.945 22.8683L16.9797 19.7328L17.6224 19.1856L18.4735 19.5513L18.4909 20.7919L18.3692 23.0866L19.3965 22.0035L20.4946 21.0923Z" fill="#264092"/>
<path fill-rule="evenodd" clip-rule="evenodd" d="M17.749 24.0424C17.749 24.0424 17.4539 25.3343 18.6943 25.279C19.6595 25.236 22.3248 24.7589 23.3879 24.5704C24.4509 24.3821 26.5769 25.1619 25.2733 27.6844C24.5712 28.8668 22.0841 29.0094 19.4967 27.1747C16.9092 25.3402 15.5313 24.3461 14.5424 23.8929C13.229 23.291 10.012 22.6956 9.36749 25.9925C9.03568 28.3248 11.5137 28.7852 11.5137 28.7852C11.5137 28.7852 9.79541 28.2286 9.76865 26.5021C9.7503 25.3164 10.9019 23.4292 13.229 24.2394C15.5747 25.056 15.5654 25.3605 18.915 27.8883C21.001 29.3152 24.3907 30.4771 25.9954 28.0921C26.9581 26.4613 26.3965 24.2191 24.2504 23.954C22.6056 23.7501 22.726 24.4228 19.0554 24.9733C17.8118 25.1525 17.756 24.679 17.749 24.0424Z" fill="#1B2133"/>
<mask id="mask0_388_872" style="mask-type:luminance" maskUnits="userSpaceOnUse" x="11" y="27" width="6" height="5">
<path fill-rule="evenodd" clip-rule="evenodd" d="M11.4622 27.9177H16.5395V32H11.4622V27.9177Z" fill="white"/>
</mask>
<g mask="url(#mask0_388_872)">
<path fill-rule="evenodd" clip-rule="evenodd" d="M15.7201 29.0714L13.5574 28.0516C12.8489 27.7174 12.0079 28.0303 11.6792 28.7504L11.6483 28.8182L12.5275 29.2171C12.5275 29.2171 13.1975 28.9623 13.4865 29.6413C14.0486 29.892 14.3162 30.0328 14.3162 30.0328L14.2757 30.122L13.4484 29.74C13.4484 29.74 12.7917 29.9781 12.4872 29.33C11.866 29.036 11.6724 28.9334 11.6118 28.8982L11.5939 28.9376C11.2651 29.6577 11.573 30.5122 12.2815 30.8463L14.4442 31.8662C15.1527 32.2003 15.9936 31.8874 16.3223 31.1673L16.4078 30.9801C16.7365 30.26 16.4286 29.4055 15.7201 29.0714Z" fill="#1B2133"/>
</g>
<path fill-rule="evenodd" clip-rule="evenodd" d="M17.759 19.0503L17.7494 19.0505C16.7809 19.0505 16.8688 20.2015 16.8688 20.2015V22.0983C16.5115 21.387 14.6929 20.2692 14.6929 20.2692L16.0567 6.54562L15.3944 6.56274L14.0071 20.8634C14.0071 20.8634 16.9834 22.4883 17.5457 24.6193V20.4646V20.4647C17.3849 20.3892 17.2792 20.2243 17.2792 20.0325C17.2792 19.7694 17.4891 19.5561 17.7479 19.5561C18.0067 19.5561 18.2166 19.7694 18.2166 20.0325C18.2166 20.2253 18.105 20.391 17.9428 20.4659V24.6193C18.6519 22.2487 21.4138 20.8642 21.4138 20.8642C21.4138 20.8642 20.436 10.361 20.037 6.54562H19.4626L19.6222 8.15091L20.8266 20.2692C20.8266 20.2692 19.0079 21.387 18.6507 22.0983V20.2015C18.6507 20.2015 18.7309 19.0505 17.7701 19.0505L17.759 19.0503Z" fill="#EF951E"/>
<mask id="mask1_388_872" style="mask-type:luminance" maskUnits="userSpaceOnUse" x="0" y="0" width="17" height="19">
<path fill-rule="evenodd" clip-rule="evenodd" d="M0 0H16.056V18.622H0V0Z" fill="white"/>
</mask>
<g mask="url(#mask1_388_872)">
<path fill-rule="evenodd" clip-rule="evenodd" d="M2.48908 9.57321C2.48908 9.57321 4.37871 8.94783 7.57493 9.44834C7.89842 10.1173 8.24445 10.8088 8.62567 11.4829C8.49954 11.4744 8.37209 11.4668 8.24249 11.4605C7.10584 11.4605 6.08598 11.5519 5.18093 11.6953C3.28511 9.97986 2.48908 9.57321 2.48908 9.57321ZM5.53791 4.65171C5.53791 4.65171 7.44711 4.73482 10.1818 6.25024C10.3038 7.34388 10.4511 8.50885 10.7068 9.63407C10.3528 9.49922 9.98138 9.36884 9.58949 9.24426C9.02767 9.09562 8.49065 8.97912 7.97664 8.88669C6.36408 5.55601 5.53791 4.65171 5.53791 4.65171ZM10.8819 10.3318C11.0294 10.8659 11.206 11.3853 11.4219 11.8772C10.7933 11.735 10.1028 11.6206 9.34507 11.5435C8.96722 10.894 8.6282 10.2242 8.31314 9.58006C8.8233 9.68229 9.36182 9.81258 9.92729 9.97776C10.2618 10.0923 10.5791 10.2107 10.8819 10.3318ZM5.87169 15.6563C2.64703 13.8565 1.45293 13.5974 1.45293 13.5974C1.45293 13.5974 2.67323 12.804 5.03111 12.3636C5.15781 12.4843 5.28657 12.6077 5.42001 12.737C7.96008 15.1997 11.2394 18.417 15.004 17.1374L15.0634 16.5389C11.5723 17.8369 8.56298 14.9135 6.25469 12.6974C6.08906 12.5383 5.92952 12.3871 5.77587 12.2431C6.64227 12.1232 7.63397 12.0553 8.75134 12.0837C8.83201 12.0895 8.91117 12.096 8.99024 12.1026C10.386 14.3791 12.2483 16.2949 15.0987 16.1842L15.1525 15.6423C12.6449 15.7295 10.9812 14.1239 9.73238 12.1781C10.4787 12.2685 11.1497 12.3953 11.752 12.5479C12.4732 13.8614 13.5433 14.9059 15.1771 15.3945L15.2316 14.8453C14.0329 14.4408 13.1783 13.7043 12.5604 12.7801C13.7811 13.1748 14.6667 13.674 15.3007 14.1505L15.3643 13.5101C14.5835 12.9772 13.535 12.4487 12.1406 12.0583C11.9127 11.606 11.7265 11.1235 11.572 10.6243C13.4243 11.4577 14.621 12.398 15.3917 13.2341L15.4633 12.5128C14.5632 11.6341 13.2586 10.7026 11.3717 9.90121C11.1033 8.81555 10.9556 7.68301 10.8336 6.63016C11.3251 6.93068 11.8377 7.27494 12.3676 7.6735C13.9058 8.94251 14.9229 10.1387 15.5945 11.1927L15.6811 10.3217C14.9176 9.2474 13.8359 8.0753 12.3034 6.8662C11.768 6.48437 11.2472 6.15038 10.7447 5.85643C10.3294 2.33261 9.86712 1.24067 9.86712 1.24067C9.86712 1.24067 12.6334 2.37559 15.3057 6.41362C15.5464 6.81532 15.7613 7.20333 15.9536 7.57811L16.056 6.54628C15.8879 6.24767 15.7076 5.94306 15.5112 5.63114C12.3645 1.12484 9.07689 0 9.07689 0C9.07689 0 9.63431 1.27529 10.0989 5.49591C6.75905 3.71288 4.38433 3.75197 4.38433 3.75197C4.38433 3.75197 5.34215 4.77581 7.19558 8.65721C7.21336 8.6943 7.23123 8.73177 7.24901 8.76914C3.38692 8.22755 1.09875 9.14003 1.09875 9.14003C1.09875 9.14003 2.08568 9.62979 4.45797 11.8253C1.5101 12.4201 0 13.5343 0 13.5343C0 13.5343 1.36282 13.8132 5.07378 15.9085C7.9831 17.5509 11.7036 19.6802 14.9162 18.0205L14.9825 17.3538C12.0051 19.1053 8.54473 17.1481 5.87169 15.6563Z" fill="#EF951E"/>
</g>
<mask id="mask2_388_872" style="mask-type:luminance" maskUnits="userSpaceOnUse" x="19" y="0" width="17" height="19">
<path fill-rule="evenodd" clip-rule="evenodd" d="M19.4482 0H35.4207V18.6217H19.4482V0Z" fill="white"/>
</mask>
<g mask="url(#mask2_388_872)">
<path fill-rule="evenodd" clip-rule="evenodd" d="M30.2398 11.6952C29.3347 11.5519 28.3149 11.4604 27.1782 11.4604C27.0486 11.4668 26.9212 11.4745 26.795 11.4829C27.1763 10.8088 27.5223 10.1172 27.8458 9.44841C31.042 8.9479 32.9316 9.57318 32.9316 9.57318C32.9316 9.57318 32.1356 9.97983 30.2398 11.6952ZM26.0757 11.5435C25.318 11.6207 24.6274 11.735 23.9988 11.8772C24.2147 11.3853 24.3914 10.866 24.5388 10.3318C24.8416 10.2106 25.1589 10.0922 25.4934 9.97783C26.0589 9.81264 26.5974 9.68226 27.1076 9.58003C26.7926 10.2242 26.4535 10.894 26.0757 11.5435ZM25.2389 6.25021C27.9736 4.73479 29.8829 4.65177 29.8829 4.65177C29.8829 4.65177 29.0567 5.55607 27.4441 8.88666C26.9301 8.97909 26.393 9.09559 25.8313 9.24423C25.4393 9.36881 25.068 9.49919 24.7139 9.63404C24.9697 8.50882 25.1169 7.34385 25.2389 6.25021ZM30.9627 11.8252C33.335 9.62976 34.322 9.14 34.322 9.14C34.322 9.14 32.0338 8.22752 28.1717 8.76911C28.1895 8.73174 28.2074 8.69436 28.2251 8.65728C30.0786 4.77578 31.0365 3.75194 31.0365 3.75194C31.0365 3.75194 28.6617 3.71285 25.3218 5.49588C25.7865 1.27526 26.3438 -3.05176e-05 26.3438 -3.05176e-05C26.3438 -3.05176e-05 23.0562 1.12481 19.9095 5.63111C19.7455 5.89168 19.5925 6.14721 19.4482 6.39847L19.5497 7.41898C19.7204 7.09374 19.9083 6.7587 20.1151 6.41368C22.7874 2.37566 25.5537 1.24064 25.5537 1.24064C25.5537 1.24064 25.0913 2.33257 24.6761 5.8564C24.1735 6.15035 23.6527 6.48434 23.1174 6.86617C21.6424 8.0299 20.584 9.15959 19.8261 10.2006L19.9115 11.0605C20.583 10.0391 21.5789 8.8896 23.0531 7.67347C23.583 7.275 24.0957 6.93064 24.5872 6.63013C24.4651 7.68307 24.3175 8.81562 24.049 9.90127C22.2237 10.6765 20.9437 11.5734 20.0472 12.4266L20.118 13.1391C20.891 12.3272 22.0662 11.4263 23.8487 10.6243C23.6942 11.1235 23.5081 11.6059 23.2801 12.0582C21.9401 12.4336 20.9193 12.9363 20.1487 13.4479L20.2118 14.0827C20.8387 13.627 21.6975 13.1562 22.8603 12.7801C22.2587 13.6799 21.4336 14.4022 20.2844 14.8132L20.339 15.363C21.9184 14.8626 22.962 13.8352 23.6688 12.5479C24.271 12.3953 24.9421 12.2685 25.6884 12.1781C24.456 14.0982 22.8195 15.6869 20.367 15.6446L20.4208 16.1856C23.2151 16.2485 25.0511 14.3525 26.4305 12.1025C26.5095 12.096 26.5887 12.0895 26.6694 12.0838C27.7867 12.0553 28.7784 12.1233 29.6448 12.2431C29.4912 12.3871 29.3317 12.5383 29.1661 12.6974C26.8803 14.8919 23.9071 17.7801 20.4595 16.576L20.5187 17.1713C24.2406 18.3592 27.4836 15.1775 30.0007 12.7371C30.1342 12.6076 30.263 12.4843 30.3896 12.3637C32.7475 12.804 33.9679 13.5974 33.9679 13.5974C33.9679 13.5974 32.7737 13.8565 29.549 15.6562C26.9072 17.1307 23.4964 19.0595 20.5428 17.4134L20.6082 18.0723C23.797 19.6342 27.4689 17.5333 30.3469 15.9084C34.058 13.8132 35.4207 13.5344 35.4207 13.5344C35.4207 13.5344 33.9106 12.4201 30.9627 11.8252Z" fill="#EF951E"/>
</g>
<path fill-rule="evenodd" clip-rule="evenodd" d="M55.1956 10.3156H50.2095V11.8233C50.6113 11.4637 51.0952 11.2838 51.6614 11.2838C52.4742 11.2838 53.1294 11.5397 53.6273 12.0513C54.1248 12.5633 54.3737 13.2155 54.3737 14.0085C54.3737 14.8662 54.0905 15.5507 53.5244 16.0627C52.958 16.5743 52.2321 16.8302 51.3464 16.8302C51.2095 16.8302 51.1043 16.8258 51.0314 16.8162V15.2533C51.0862 15.2625 51.1591 15.2673 51.2507 15.2673C51.6249 15.2673 51.9149 15.152 52.1204 14.9216C52.3258 14.6909 52.4285 14.3959 52.4285 14.0363C52.4285 13.7041 52.3327 13.4207 52.1409 13.1856C51.9492 12.9504 51.6706 12.833 51.3053 12.833C50.9856 12.833 50.7232 12.9504 50.5176 13.1856C50.3122 13.4207 50.2095 13.7319 50.2095 14.1194V18.0473H48.2643V16.4429C47.8717 16.7935 47.3878 16.9686 46.8124 16.9686C45.9995 16.9686 45.3443 16.7125 44.8467 16.2009C44.3489 15.6891 44.1002 15.0367 44.1002 14.2436C44.1002 13.3862 44.383 12.7015 44.9494 12.1897C45.5155 11.6781 46.2416 11.4222 47.1274 11.4222C47.2552 11.4222 47.3604 11.4268 47.4425 11.4359V12.9988C47.3878 12.9897 47.3146 12.9851 47.2234 12.9851C46.8488 12.9851 46.559 13.1005 46.3535 13.3308C46.1481 13.5614 46.0454 13.8565 46.0454 14.216C46.0454 14.5478 46.1411 14.8315 46.333 15.0666C46.5248 15.3017 46.8031 15.4194 47.1685 15.4194C47.4881 15.4194 47.7507 15.3017 47.9562 15.0666C48.1616 14.8315 48.2643 14.5205 48.2643 14.133V10.3156H43.292V8.76636H55.1956V10.3156Z" fill="#EF951E"/>
<path fill-rule="evenodd" clip-rule="evenodd" d="M57.7844 12.8882H59.9487V10.3155H57.7844V12.8882ZM54.3738 10.3155V8.76648H63.209V10.3155H61.8391V18.0473H59.9487V14.4374H57.7844V16.1248H56.1544L55.6612 15.0182C55.3963 14.4096 55.264 13.9857 55.264 13.7457C55.264 13.3494 55.4696 13.0957 55.8805 12.985V10.3155H54.3738Z" fill="#EF951E"/>
<path fill-rule="evenodd" clip-rule="evenodd" d="M66.9073 14.8662C67.4278 14.8662 67.8387 14.7138 68.1401 14.4096C68.4415 14.1052 68.5921 13.6489 68.5921 13.0403V10.3156H66.8113C67.0032 10.6106 67.0989 11.0072 67.0989 11.505C67.0989 12.1045 66.9323 12.5956 66.599 12.9781C66.2656 13.3609 65.8342 13.6398 65.3046 13.8149C65.5146 14.5158 66.0488 14.8662 66.9073 14.8662ZM66.5785 16.5811C65.6744 16.5811 64.8957 16.2494 64.243 15.5854C63.59 14.9214 63.1951 14.0085 63.0581 12.8467C64.4827 12.6439 65.195 12.1646 65.195 11.4083C65.195 10.9473 65.0625 10.5831 64.7978 10.3156H62.387V8.76636H71.8933V10.3156H70.5234V18.0472H68.5921V15.6959C68.4368 15.9634 68.1766 16.178 67.8113 16.3392C67.4459 16.5005 67.035 16.5811 66.5785 16.5811Z" fill="#EF951E"/>
<path fill-rule="evenodd" clip-rule="evenodd" d="M74.3723 8.76645H75.7285V10.3157H74.3586V18.0473H72.4408V10.3157H71.0711V8.76645H72.3039L71.3862 7.41078C71.1397 7.03306 70.7927 6.84396 70.3452 6.84396C70.0621 6.84396 69.7698 6.89024 69.4685 6.98233V5.35009C69.7972 5.28552 70.1444 5.25323 70.5095 5.25323C71.0666 5.26262 71.5369 5.36377 71.9204 5.55764C72.3039 5.75119 72.6416 6.07404 72.934 6.52556L74.3723 8.76645Z" fill="#EF951E"/>
<path fill-rule="evenodd" clip-rule="evenodd" d="M74.9065 8.76645H83.7417V10.3157H82.372V18.0473H80.4542V10.3157H78.9338V13.2756C78.9338 13.9396 78.7489 14.4329 78.379 14.7554C78.0091 15.0783 77.5318 15.2396 76.9475 15.2396C76.5091 15.2396 76.1028 15.175 75.7285 15.046V13.5245C75.9292 13.6352 76.153 13.6905 76.3997 13.6905C76.8015 13.6905 77.0024 13.4784 77.0024 13.0543V10.3157H74.9065V8.76645Z" fill="#EF951E"/>
<path fill-rule="evenodd" clip-rule="evenodd" d="M86.2074 8.76643H87.591V10.3156H86.221V18.0473H84.2898V10.3156H82.9198V8.76643H84.2759V7.9364C84.2759 7.59542 84.1869 7.33284 84.009 7.14835C83.8308 6.96371 83.5774 6.87146 83.2487 6.87146C82.6095 6.87146 82.2898 7.2266 82.2898 7.9364V8.28231H80.3447V7.86754C80.3447 7.00076 80.6186 6.34583 81.1664 5.90322C81.7146 5.46061 82.4085 5.23923 83.2487 5.23923C84.098 5.23923 84.8034 5.45854 85.3651 5.89638C85.9266 6.33438 86.2074 6.98693 86.2074 7.85338V8.76643Z" fill="#EF951E"/>
<path fill-rule="evenodd" clip-rule="evenodd" d="M95.8508 12.8189V8.76642H99.1108V10.3156H97.7412V18.0472H95.8508V14.3682H93.7548V16.0971H92.0837L91.5907 15.032C91.3442 14.5064 91.2209 14.1008 91.2209 13.815C91.2209 13.3357 91.4308 13.0357 91.8509 12.916V10.938C91.8509 10.5046 91.6406 10.2878 91.2209 10.2878C90.9832 10.2878 90.7367 10.3525 90.4812 10.4817V8.97397C90.828 8.78949 91.2209 8.69708 91.6592 8.69708C93.0564 8.69708 93.7548 9.36585 93.7548 10.7029V12.8189H95.8508Z" fill="#264092"/>
<path fill-rule="evenodd" clip-rule="evenodd" d="M98.2888 10.3156V8.76636H102.96V10.3156H101.59V18.0473H99.6585V10.3156H98.2888Z" fill="#264092"/>
<path fill-rule="evenodd" clip-rule="evenodd" d="M103.028 14.5064V12.985H104.069C104.909 12.985 105.329 12.6346 105.329 11.9337V10.3157H102.138V8.76645H108.672V10.3157H107.247V12.0446C107.247 12.6625 107.094 13.1809 106.788 13.6005C106.482 14.0202 106.042 14.2852 105.467 14.3959C105.393 14.4143 105.325 14.4237 105.261 14.4237L108.069 18.0473H105.74L103.028 14.5064Z" fill="#264092"/>
<path fill-rule="evenodd" clip-rule="evenodd" d="M117 8.76645V10.3157H115.63V18.0473H113.685V13.068H112.726C112.105 13.068 111.632 13.2088 111.308 13.49C110.984 13.7713 110.822 14.1794 110.822 14.7139C110.822 15.839 111.302 16.4014 112.26 16.4014C112.361 16.4014 112.438 16.3969 112.493 16.3877V18.0058C112.274 18.0245 112.091 18.0336 111.945 18.0336C110.977 18.0336 110.224 17.7271 109.685 17.1137C109.146 16.5006 108.877 15.696 108.877 14.7003C108.877 13.723 109.197 12.9435 109.836 12.3627C110.475 11.7817 111.42 11.4911 112.671 11.4911H113.685V10.3157H107.85V8.76645H117Z" fill="#264092"/>
<path fill-rule="evenodd" clip-rule="evenodd" d="M62.9199 21.475V21.9591H62.3849V24.8394H61.784V22.8715C61.7336 22.8615 61.6813 22.8563 61.6276 22.8563C61.4625 22.8563 61.3398 22.9014 61.259 22.9913C61.1782 23.0815 61.1379 23.2251 61.1379 23.4221V23.7638H60.5421V23.412C60.5421 23.0789 60.426 22.9126 60.1938 22.9126C60.0725 22.9126 59.9749 22.9609 59.901 23.0578C59.827 23.1545 59.7898 23.3014 59.7898 23.4988C59.7898 23.7571 59.858 23.9618 59.9944 24.113C60.1307 24.2643 60.3368 24.3398 60.6128 24.3398C60.6936 24.3398 60.7558 24.3363 60.7996 24.3295V24.819C60.712 24.8292 60.6262 24.8343 60.5421 24.8343C60.1349 24.8343 59.81 24.7102 59.5677 24.4623C59.3255 24.214 59.2042 23.8896 59.2042 23.4885C59.2042 23.1656 59.2867 22.9057 59.4516 22.7085C59.6166 22.5115 59.8437 22.4129 60.1332 22.4129C60.3283 22.4129 60.4873 22.4555 60.6103 22.5403C60.7331 22.6253 60.8097 22.7375 60.8399 22.877C60.9275 22.5471 61.1782 22.3822 61.5922 22.3822C61.6528 22.3822 61.7166 22.3909 61.784 22.4078V21.9591H58.856V21.475H62.9199Z" fill="#1B2133"/>
<path fill-rule="evenodd" clip-rule="evenodd" d="M63.7679 21.475H64.3031V21.9591H63.7679V24.8394H63.1823V21.9591H62.6472V21.475H63.1317L62.7631 20.9243C62.6656 20.7679 62.5294 20.69 62.3542 20.69C62.2635 20.69 62.1641 20.7051 62.0564 20.7358V20.231C62.1978 20.2075 62.3123 20.1954 62.3998 20.1954C62.7666 20.1987 63.0476 20.3535 63.2429 20.6593L63.7679 21.475Z" fill="#1B2133"/>
<path fill-rule="evenodd" clip-rule="evenodd" d="M68.3166 21.9591H66.4689V22.5862C66.6237 22.4401 66.8088 22.3671 67.0243 22.3671C67.3169 22.3671 67.5525 22.4569 67.731 22.6371C67.9093 22.8173 67.9986 23.05 67.9986 23.3356C67.9986 23.6446 67.8967 23.8912 67.6932 24.0747C67.4894 24.2581 67.2328 24.3498 66.9233 24.3498C66.8693 24.3498 66.8305 24.3482 66.8072 24.3449V23.8608C66.8274 23.8641 66.8576 23.8657 66.8979 23.8657C67.0495 23.8657 67.1714 23.8174 67.264 23.7203C67.3564 23.6235 67.4029 23.4988 67.4029 23.3456C67.4029 23.2028 67.3599 23.0842 67.2741 22.9889C67.1882 22.8938 67.0729 22.8463 66.9282 22.8463C66.7971 22.8463 66.6877 22.893 66.6001 22.9864C66.5125 23.0799 66.4689 23.1996 66.4689 23.3456V24.8394H65.873V24.1867C65.7217 24.3295 65.5366 24.4009 65.3178 24.4009C65.0283 24.4009 64.7936 24.311 64.6136 24.1307C64.4334 23.9506 64.3435 23.718 64.3435 23.4323C64.3435 23.1233 64.4452 22.8768 64.6489 22.6931C64.8525 22.5096 65.1091 22.4178 65.4188 22.4178C65.4692 22.4178 65.5079 22.4197 65.5349 22.4232V22.9073C65.5147 22.9041 65.4845 22.9022 65.444 22.9022C65.2926 22.9022 65.1706 22.9506 65.0779 23.0474C64.9855 23.1445 64.9392 23.2693 64.9392 23.4221C64.9392 23.5648 64.982 23.6838 65.0679 23.779C65.1537 23.8741 65.2706 23.9218 65.4188 23.9218C65.5467 23.9218 65.6543 23.8749 65.742 23.7817C65.8294 23.6881 65.873 23.5683 65.873 23.4221V21.9591H64.0305V21.475H68.3166V21.9591Z" fill="#1B2133"/>
<path fill-rule="evenodd" clip-rule="evenodd" d="M71.5425 20.6133V21.1537C71.216 21.0044 70.8753 20.8854 70.5201 20.7968C70.1651 20.7084 69.8748 20.6643 69.6494 20.6643C69.4944 20.6643 69.3758 20.7062 69.2933 20.7893C69.2109 20.8727 69.1698 20.9872 69.1698 21.1334V21.475H69.7049V21.9591H69.1698V24.8393H68.579V21.9591H68.0439V21.475H68.579V21.123C68.579 20.8344 68.6724 20.6014 68.8592 20.4248C69.046 20.2481 69.3043 20.1595 69.6341 20.1595C69.9302 20.1595 70.2265 20.1979 70.5226 20.2744C70.8187 20.3507 71.1588 20.4639 71.5425 20.6133Z" fill="#1B2133"/>
<path fill-rule="evenodd" clip-rule="evenodd" d="M71.9261 22.7595H70.664C70.5158 22.7595 70.4417 22.8174 70.4417 22.933C70.4417 23.0485 70.4989 23.1469 70.6134 23.2285C70.758 23.1946 70.908 23.1774 71.0628 23.1774C71.3556 23.1774 71.5903 23.2488 71.767 23.3917C71.9437 23.5345 72.0321 23.7094 72.0321 23.9168C72.0321 24.039 72.0152 24.136 71.9815 24.2074H71.401C71.4414 24.1428 71.4616 24.0561 71.4616 23.9472C71.4616 23.8691 71.4254 23.8028 71.3531 23.7484C71.2806 23.6942 71.1789 23.667 71.0477 23.667C70.8558 23.667 70.7076 23.7061 70.6033 23.784C70.4989 23.8623 70.4469 23.9609 70.4469 24.0798C70.4469 24.2225 70.5082 24.3372 70.6311 24.4238C70.7539 24.5107 70.9466 24.5539 71.2091 24.5539C71.3876 24.5539 71.6114 24.5218 71.8807 24.4569V24.9514C71.618 25.0093 71.3841 25.0381 71.1789 25.0381C70.7514 25.0381 70.4241 24.9422 70.197 24.7502C69.9699 24.5582 69.8561 24.3329 69.8561 24.0746C69.8561 23.8131 69.9656 23.5973 70.1844 23.4273C69.9521 23.2915 69.836 23.1027 69.836 22.8616C69.836 22.6781 69.9024 22.5368 70.0354 22.4385C70.1683 22.3399 70.3408 22.2905 70.5528 22.2905H71.3405V21.9592H69.4321V21.4751H72.446V21.9592H71.9261V22.7595Z" fill="#1B2133"/>
<path fill-rule="evenodd" clip-rule="evenodd" d="M75.4752 21.475V21.9591H74.9402V24.8394H74.3494V22.9584H73.9455C73.4306 22.9584 73.1731 23.1844 73.1731 23.6362C73.1731 23.8538 73.2237 24.0236 73.3246 24.1459C73.4256 24.2684 73.5771 24.3295 73.7789 24.3295C73.8227 24.3295 73.8547 24.3279 73.875 24.3245V24.8239C73.8008 24.8308 73.7401 24.8343 73.6932 24.8343C73.3464 24.8343 73.0737 24.7229 72.8753 24.5003C72.6767 24.2776 72.5774 23.9882 72.5774 23.6313C72.5774 23.2777 72.691 22.9948 72.9183 22.7825C73.1454 22.5702 73.4777 22.4639 73.9153 22.4639H74.3494V21.9591H72.1736V21.475H75.4752Z" fill="#1B2133"/>
<path fill-rule="evenodd" clip-rule="evenodd" d="M74.3847 20.9932C74.3174 20.9234 74.2837 20.8377 74.2837 20.7358C74.2837 20.6337 74.3174 20.5479 74.3847 20.4781C74.4519 20.4086 74.5379 20.3738 74.642 20.3738C74.7431 20.3738 74.8288 20.4086 74.8995 20.4781C74.9703 20.5479 75.0055 20.6337 75.0055 20.7358C75.0055 20.8377 74.9703 20.9234 74.8995 20.9932C74.8288 21.0627 74.7431 21.0977 74.642 21.0977C74.5379 21.0977 74.4519 21.0627 74.3847 20.9932Z" fill="#1B2133"/>
<path fill-rule="evenodd" clip-rule="evenodd" d="M77.6461 22.9889H78.5397V21.9591H77.6461V22.9889ZM76.4546 21.9591V21.4749H79.6553V21.9591H79.1201V24.8393H78.5397V23.4731H77.646V24.1206H77.1412L76.9796 23.7586C76.8854 23.5445 76.8383 23.3898 76.8383 23.2947C76.8383 23.1487 76.9121 23.0569 77.0604 23.0194V21.9591H76.4546Z" fill="#1B2133"/>
<path fill-rule="evenodd" clip-rule="evenodd" d="M80.5741 22.9889H81.4676V21.9591H80.5741V22.9889ZM79.3826 21.9591V21.4749H82.5833V21.9591H82.0481V24.8393H81.4676V23.4731H80.574V24.1206H80.0691L79.9075 23.7586C79.8133 23.5445 79.7661 23.3898 79.7661 23.2947C79.7661 23.1487 79.8401 23.0569 79.9883 23.0194V21.9591H79.3826Z" fill="#1B2133"/>
<path fill-rule="evenodd" clip-rule="evenodd" d="M87.8488 21.9591H86.0011V22.5862C86.1558 22.4401 86.341 22.3671 86.5563 22.3671C86.8491 22.3671 87.0848 22.4569 87.2632 22.6371C87.4415 22.8173 87.5307 23.05 87.5307 23.3356C87.5307 23.6446 87.4288 23.8912 87.2254 24.0747C87.0216 24.2581 86.765 24.3498 86.4554 24.3498C86.4015 24.3498 86.3627 24.3482 86.3393 24.3449V23.8608C86.3594 23.8641 86.3898 23.8657 86.4302 23.8657C86.5815 23.8657 86.7034 23.8174 86.7962 23.7203C86.8887 23.6235 86.935 23.4988 86.935 23.3456C86.935 23.2028 86.892 23.0842 86.8063 22.9889C86.7204 22.8938 86.6051 22.8463 86.4604 22.8463C86.3292 22.8463 86.2199 22.893 86.1323 22.9864C86.0446 23.0799 86.0011 23.1996 86.0011 23.3456V24.8394H85.4053V24.1867C85.2539 24.3295 85.0687 24.4009 84.8499 24.4009C84.5604 24.4009 84.3257 24.311 84.1457 24.1307C83.9656 23.9506 83.8756 23.718 83.8756 23.4323C83.8756 23.1233 83.9773 22.8768 84.181 22.6931C84.3846 22.5096 84.6412 22.4178 84.9509 22.4178C85.0014 22.4178 85.04 22.4197 85.0671 22.4232V22.9073C85.0469 22.9041 85.0165 22.9022 84.9762 22.9022C84.8247 22.9022 84.7026 22.9506 84.6102 23.0474C84.5176 23.1445 84.4712 23.2693 84.4712 23.4221C84.4712 23.5648 84.5142 23.6838 84.5999 23.779C84.6859 23.8741 84.8028 23.9218 84.9509 23.9218C85.0787 23.9218 85.1865 23.8749 85.2741 23.7817C85.3615 23.6881 85.4053 23.5683 85.4053 23.4221V21.9591H83.5627V21.475H87.8488V21.9591Z" fill="#1B2133"/>
<path fill-rule="evenodd" clip-rule="evenodd" d="M87.8841 23.4884V23.0143H88.2476C88.5941 23.0143 88.7676 22.8734 88.7676 22.5913V21.9591H87.5762V21.475H89.8731V21.9591H89.3582V22.6271C89.3582 22.8615 89.295 23.0527 89.1689 23.2006C89.0427 23.3483 88.8666 23.4358 88.6414 23.463C88.6211 23.47 88.5974 23.4732 88.5707 23.4732L89.6208 24.8393H88.9088L87.8841 23.4884Z" fill="#1B2133"/>
<path fill-rule="evenodd" clip-rule="evenodd" d="M91.2713 23.0857V21.9591H90.5545V23.0857C90.5545 23.3644 90.6722 23.5037 90.9078 23.5037C91.1502 23.5037 91.2713 23.3644 91.2713 23.0857ZM93.6593 21.475V21.9591H93.1242V24.8393H92.5334V21.9591H91.8569V23.0399C91.8569 23.356 91.7728 23.5963 91.6046 23.7613C91.4362 23.926 91.2006 24.0085 90.8977 24.0085C90.2751 24.0085 89.9639 23.6891 89.9639 23.0501V21.9591H89.6003V21.475H93.6593Z" fill="#1B2133"/>
<path fill-rule="evenodd" clip-rule="evenodd" d="M94.5074 21.475H95.0477V21.9591H94.5125V24.8393H93.9218V21.9591H93.3868V21.475H93.9168V21.123C93.9168 20.9837 93.8788 20.8759 93.8032 20.7994C93.7275 20.723 93.6257 20.6847 93.4977 20.6847C93.2318 20.6847 93.0989 20.8309 93.0989 21.123V21.2352H92.5032V21.1027C92.5032 20.7968 92.5975 20.5659 92.7859 20.4094C92.9744 20.2532 93.2116 20.175 93.4977 20.175C93.7872 20.175 94.0278 20.2524 94.2197 20.407C94.4115 20.5618 94.5074 20.7917 94.5074 21.0977V21.475Z" fill="#1B2133"/>
<path fill-rule="evenodd" clip-rule="evenodd" d="M96.426 23.7383C96.6347 23.7383 96.8004 23.6788 96.9232 23.5598C97.0461 23.4409 97.1075 23.2693 97.1075 23.045V21.9591H96.3403C96.4175 22.0747 96.4562 22.2244 96.4562 22.4077C96.4562 22.8224 96.224 23.1045 95.7596 23.2538C95.8 23.4002 95.8783 23.5172 95.9942 23.6058C96.1105 23.6941 96.2543 23.7383 96.426 23.7383ZM96.3351 24.2634C96.0086 24.2634 95.7284 24.147 95.4946 23.9142C95.2606 23.6815 95.1184 23.3575 95.0678 22.9429C95.6032 22.8582 95.8708 22.6711 95.8708 22.3821C95.8708 22.2089 95.8202 22.068 95.7192 21.9591H94.7751V21.475H98.2332V21.9591H97.6982V24.8393H97.1075V23.9267C97.0401 24.0289 96.9376 24.1103 96.7996 24.1717C96.6614 24.2327 96.5068 24.2634 96.3351 24.2634Z" fill="#1B2133"/>
<path fill-rule="evenodd" clip-rule="evenodd" d="M99.152 22.9889H100.046V21.9591H99.152V22.9889ZM97.9604 21.9591V21.4749H101.161V21.9591H100.626V24.8393H100.046V23.4731H99.152V24.1206H98.647L98.4856 23.7586C98.3912 23.5445 98.3443 23.3898 98.3443 23.2947C98.3443 23.1487 98.4182 23.0569 98.5664 23.0194V21.9591H97.9604Z" fill="#1B2133"/>
<path fill-rule="evenodd" clip-rule="evenodd" d="M101.394 26.0526H100.682L100.071 25.1758H100.672L101.394 26.0526Z" fill="#1B2133"/>
<path fill-rule="evenodd" clip-rule="evenodd" d="M103.127 23.5155H114.906V23H103.127V23.5155Z" fill="#1B2133"/>
<path fill-rule="evenodd" clip-rule="evenodd" d="M45.554 23.5155H57.3331V23H45.554V23.5155Z" fill="#1B2133"/>
<path fill-rule="evenodd" clip-rule="evenodd" d="M62.2043 6.70743C61.92 6.70743 61.6812 6.79245 61.4886 6.96216C61.2958 7.13203 61.1996 7.36381 61.1996 7.65733C61.1996 8.07053 61.374 8.46062 61.7225 8.82775H59.768C59.7221 8.79118 59.6694 8.73387 59.6097 8.65566C59.5501 8.57777 59.4674 8.40774 59.3619 8.14604C59.2565 7.88451 59.2036 7.61157 59.2036 7.32692C59.2036 6.57445 59.4469 5.99834 59.9331 5.59907C60.4196 5.19979 61.0115 5 61.7089 5C62.3787 5 62.9477 5.1151 63.4155 5.34434V7.06538C62.9565 6.82664 62.5531 6.70743 62.2043 6.70743Z" fill="#EF951E"/>
<defs>
<radialGradient id="paint0_radial_388_872" cx="0" cy="0" r="1" gradientUnits="userSpaceOnUse" gradientTransform="translate(17.7673 13.6598) rotate(90) scale(2.30013 2.26319)">
<stop stop-color="#E94D13"/>
<stop offset="0.219622" stop-color="#EB6E07"/>
<stop offset="0.407645" stop-color="#F4970B"/>
<stop offset="0.591614" stop-color="#FCBF06"/>
<stop offset="0.804311" stop-color="#F7F19D"/>
<stop offset="1" stop-color="white"/>
</radialGradient>
</defs>
</svg>
