<svg width="24" height="24" viewBox="0 0 24 24" fill="none" xmlns="http://www.w3.org/2000/svg">
<path d="M22.3555 16.5117H15.8672C15.5109 16.5117 15.2227 16.8 15.2227 17.1562V23H22.3555C22.7117 23 23 22.7117 23 22.3555V17.1562C23 16.8 22.7117 16.5117 22.3555 16.5117Z" fill="#F3962F"/>
<path d="M8.13281 15.2227H1.64453C1.28828 15.2227 1 15.5109 1 15.8672V22.3555C1 22.7117 1.28828 23 1.64453 23H8.77734V15.8672C8.77734 15.5109 8.48907 15.2227 8.13281 15.2227Z" fill="#F3962F"/>
<path d="M16.5117 12V23H7.48828V12C7.48828 11.639 7.77183 11.3555 8.13281 11.3555H15.8672C16.2282 11.3555 16.5117 11.639 16.5117 12Z" fill="#1B4CA1"/>
<path d="M16.5117 12V23H12V11.3555H15.8672C16.2282 11.3555 16.5117 11.639 16.5117 12Z" fill="#7FAEFF"/>
<path d="M16.138 4.16247L13.6887 3.77575L12.6187 1.37457C12.5157 1.15538 12.2578 0.987806 12 1.0007C11.7938 1.0007 11.6004 1.10386 11.4587 1.36168L10.3372 3.72418L7.88791 4.04645C7.35944 4.12384 7.12732 4.76837 7.51413 5.1422L9.26725 6.89532L8.81612 9.33165C8.71295 9.86012 9.26725 10.2726 9.7442 10.0277L11.9485 8.90622L12 8.93204L14.127 10.0793C14.5911 10.3371 15.1583 9.95036 15.068 9.42188L14.6813 6.97262L16.473 5.25813C16.8727 4.89727 16.6664 4.23981 16.138 4.16247Z" fill="#1B4CA1"/>
<path d="M16.473 5.25817L14.6812 6.97266L15.068 9.42193C15.1582 9.9504 14.591 10.3371 14.127 10.0793L12 8.93204V1.0007C12.2578 0.987806 12.5157 1.15538 12.6187 1.37457L13.6887 3.77579L16.1379 4.16251C16.6664 4.23981 16.8727 4.89727 16.473 5.25817Z" fill="#7FAEFF"/>
</svg>
