<svg width="12" height="10" viewBox="0 0 12 10" fill="none" xmlns="http://www.w3.org/2000/svg">
<path d="M1.76671 0.968971C1.83464 0.903043 1.92598 0.866797 2.02063 0.868204C2.11529 0.86961 2.20551 0.908554 2.27146 0.97647C2.3432 1.05185 2.38252 1.15236 2.38098 1.25641C2.37943 1.36046 2.33715 1.45975 2.26321 1.53297C1.29349 2.51434 0.750383 3.83883 0.751957 5.21847C0.751957 6.71097 1.37446 8.05797 2.37496 9.01347C2.41341 9.04928 2.44438 9.09235 2.46608 9.1402C2.48779 9.18805 2.49979 9.23973 2.50139 9.29225C2.503 9.34476 2.49417 9.39708 2.47543 9.44617C2.45669 9.49525 2.4284 9.54013 2.39221 9.57822C2.32769 9.64487 2.23972 9.68372 2.147 9.68652C2.05428 9.68932 1.96413 9.65585 1.89571 9.59322C1.29719 9.03266 0.820245 8.35508 0.494478 7.60253C0.168712 6.84997 0.00107102 6.03851 0.00195662 5.21847C0.00195662 3.55797 0.676957 2.05497 1.76671 0.968971ZM9.74071 1.53297C9.66686 1.45965 9.62472 1.3603 9.62331 1.25625C9.62191 1.1522 9.66137 1.05175 9.73321 0.97647C9.79912 0.908782 9.88918 0.869983 9.98366 0.868578C10.0781 0.867172 10.1693 0.903273 10.2372 0.968971C10.7972 1.52583 11.2414 2.18801 11.5443 2.91735C11.8472 3.64668 12.0027 4.42875 12.002 5.21847C12.002 6.94347 11.2745 8.49897 10.1082 9.59322C10.0398 9.65585 9.94963 9.68932 9.85691 9.68652C9.76419 9.68372 9.67622 9.64487 9.61171 9.57822C9.57562 9.54015 9.54743 9.49531 9.52876 9.4463C9.51009 9.39728 9.5013 9.34506 9.5029 9.29263C9.5045 9.2402 9.51647 9.18861 9.5381 9.14083C9.55974 9.09304 9.59062 9.05001 9.62896 9.01422C10.1426 8.52457 10.5514 7.9356 10.8304 7.28308C11.1094 6.63056 11.2528 5.92813 11.252 5.21847C11.2537 3.83857 10.7106 2.51452 9.74071 1.53297ZM3.10096 2.28597C3.16779 2.22232 3.25717 2.18782 3.34944 2.19007C3.44171 2.19232 3.5293 2.23114 3.59296 2.29797C3.74896 2.45397 3.73321 2.71047 3.57946 2.86797C2.96845 3.49785 2.62681 4.34094 2.62696 5.21847C2.62696 6.18597 3.03421 7.05897 3.68746 7.67472C3.85246 7.82997 3.87496 8.09547 3.71371 8.25672C3.6519 8.32098 3.56774 8.35901 3.47866 8.36292C3.38958 8.36683 3.30241 8.33632 3.23521 8.27772C2.80759 7.89103 2.46578 7.41899 2.23184 6.89205C1.99789 6.36512 1.877 5.795 1.87696 5.21847C1.87613 4.6729 1.98394 4.13262 2.19408 3.62914C2.40423 3.12567 2.71251 2.66907 3.10096 2.28597ZM8.42446 2.86797C8.27071 2.71047 8.25496 2.45397 8.41096 2.29797C8.47461 2.23114 8.5622 2.19232 8.65447 2.19007C8.74674 2.18782 8.83612 2.22232 8.90296 2.28597C9.2914 2.66907 9.59968 3.12567 9.80983 3.62914C10.02 4.13262 10.1278 4.6729 10.127 5.21847C10.1271 5.79507 10.0064 6.3653 9.77257 6.89237C9.53875 7.41943 9.19703 7.89162 8.76946 8.27847C8.70198 8.33733 8.61438 8.36785 8.52494 8.36365C8.4355 8.35946 8.35113 8.32088 8.28946 8.25597C8.12896 8.09547 8.15146 7.82997 8.31646 7.67472C8.65131 7.35921 8.91812 6.97856 9.10049 6.55617C9.28286 6.13377 9.37694 5.67855 9.37696 5.21847C9.37711 4.34094 9.03546 3.49785 8.42446 2.86797ZM6.00196 4.28097C5.75332 4.28097 5.51486 4.37974 5.33904 4.55556C5.16323 4.73137 5.06446 4.96983 5.06446 5.21847C5.06446 5.46711 5.16323 5.70557 5.33904 5.88138C5.51486 6.0572 5.75332 6.15597 6.00196 6.15597C6.2506 6.15597 6.48905 6.0572 6.66487 5.88138C6.84068 5.70557 6.93946 5.46711 6.93946 5.21847C6.93946 4.96983 6.84068 4.73137 6.66487 4.55556C6.48905 4.37974 6.2506 4.28097 6.00196 4.28097Z" fill="#CE4444"/>
</svg>
