<svg width="342" height="336" viewBox="0 0 342 336" fill="none" xmlns="http://www.w3.org/2000/svg">
<g opacity="0.16" clip-path="url(#clip0_6628_13883)">
<path d="M82.0586 237.887C82.0586 237.887 104.288 242.362 164.82 276.003C211.761 302.092 266.054 334.422 318.07 309.343L319.139 298.76C270.96 325.186 220.928 295.625 177.831 271.953C125.229 243.058 105.753 237.499 105.753 237.499C105.753 237.499 125.661 227.56 164.117 220.492C166.181 222.425 168.283 223.011 170.457 225.084C211.512 264.262 258.812 313.943 319.519 294.878L321.884 286.718C290.48 322.63 214.28 270.817 176.996 235.587C174.294 233.031 157.27 212.757 154.766 210.45C168.898 208.523 216.498 204.59 224.794 214.603C226.112 214.698 227.401 214.8 228.69 214.903C251.19 251.027 275.536 280.068 321.116 279.057L321.994 270.37C302.95 293.764 243.861 241.395 222.744 204.957C234.921 206.407 263.638 217.957 273.464 220.411C284.996 241.08 296.689 257.816 322.448 265.851L323.341 257.025C289.082 251.32 278.904 230.855 276.905 217.84C295.877 223.875 314.299 235.184 324.52 242.501L325.553 235.111C312.981 226.893 290.209 217.32 268.353 211.292C264.633 204.034 259.208 189.326 256.689 181.313C285.765 194.19 314.599 205.682 327.207 218.712C312.585 205.015 286.46 187.722 256.689 175.278C252.31 157.846 248.767 125.744 246.775 108.839C254.793 113.666 275.133 127.597 283.781 133.998C307.826 153.525 318.472 167.778 329.426 184.177L330.817 182.976C318.45 166.262 306.794 149.526 282.734 130.841C273.998 124.711 266.903 119.349 258.71 114.632C251.937 58.059 247.2 41.9308 247.2 41.9308C247.2 41.9308 288.123 64.358 331.711 129.186C335.086 134.723 332.545 133.104 335.335 138.319L336.99 121.935C334.639 117.899 332.143 113.797 329.47 109.615C278.143 37.2652 230.117 20.6096 230.117 20.6096C230.117 20.6096 239.211 41.0812 246.79 108.846C192.314 80.2226 153.573 80.8451 153.573 80.8451C153.573 80.8451 169.198 97.281 199.431 159.597C199.716 160.19 200.009 160.791 200.302 161.391C137.303 152.697 99.9829 167.346 99.9829 167.346C99.9829 167.346 116.084 175.212 154.774 210.457C106.69 220.008 82.0586 237.894 82.0586 237.894V237.887ZM256.704 175.264C250.927 173.103 244.871 171.008 238.479 169.009C229.319 166.621 221.953 164.753 213.57 163.266C187.269 109.791 173.789 93.8752 173.789 93.8752C173.789 93.8752 203.531 98.0135 248.137 122.338C250.129 139.894 252.53 157.202 256.696 175.264H256.704ZM200.302 161.384C208.627 163.025 242.338 171.55 251.564 174.202C257.019 176.04 254.624 184.529 259.559 186.477C261.961 195.054 264.846 203.389 268.368 211.285C258.117 209 246.848 207.168 234.489 205.931C214.243 211.556 205.442 171.733 200.302 161.391V161.384ZM122.659 171.491C122.659 171.491 153.485 165.654 205.618 173.689C210.897 184.426 216.542 194.131 222.759 204.949C220.701 204.817 218.622 204.693 216.506 204.59C197.966 204.59 181.331 206.055 166.569 208.362C135.649 180.823 122.659 171.491 122.659 171.491Z" fill="#2B3F8C"/>
<path d="M372.897 332.093H372.728C355.705 332.093 357.25 352.015 357.25 352.015V384.836C350.967 372.523 318.999 353.187 318.999 353.187L342.979 115.716L331.337 116.017L306.947 363.47C306.947 363.47 359.271 391.589 369.155 428.467V356.578C366.329 355.274 364.469 352.418 364.469 349.1C364.469 344.552 368.159 340.86 372.706 340.86C377.253 340.86 380.944 344.552 380.944 349.1C380.944 352.44 378.981 355.304 376.133 356.6V428.467C388.603 387.443 437.155 363.492 437.155 363.492C437.155 363.492 419.963 181.746 412.948 115.724H402.851L405.656 143.505L426.831 353.194C426.831 353.194 394.856 372.538 388.581 384.843C388.581 357.296 388.581 352.022 388.581 352.022C388.581 352.022 389.994 332.107 373.102 332.107H372.911L372.897 332.093Z" fill="#E2983E"/>
<path d="M163.911 273.366C107.217 242.223 86.2243 237.74 86.2243 237.74C86.2243 237.74 107.678 224.007 149.128 216.39C151.354 218.477 153.616 220.609 155.967 222.85C200.624 265.463 258.27 321.136 324.454 298.994L325.501 288.637C264.128 311.101 211.219 260.512 170.64 222.169C167.726 219.415 164.921 216.8 162.22 214.31C177.449 212.237 194.883 211.058 214.528 211.556C215.949 211.658 217.34 211.768 218.731 211.878C243.267 251.269 276.011 284.419 326.116 282.507L327.061 273.132C282.975 274.641 253.73 246.859 231.772 213.189C244.893 214.757 256.688 216.947 267.276 219.591C279.958 242.318 298.768 260.395 327.493 268.847L328.452 259.347C307.379 252.345 292.354 239.601 281.488 223.612C302.949 230.445 318.516 239.081 329.667 247.328L330.787 236.246C317.059 227.025 298.629 217.884 274.115 211.124C270.11 203.294 266.837 194.951 264.12 186.309C296.689 200.73 317.718 216.998 331.271 231.471L332.53 218.99C316.707 203.785 293.767 187.664 260.598 173.799C255.883 155.012 253.284 135.412 251.138 117.196C259.778 122.396 268.792 128.351 278.105 135.251C305.146 157.209 323.026 177.908 334.837 196.145L336.359 181.072C322.938 162.483 303.923 142.201 276.978 121.276C267.562 114.669 258.409 108.89 249.571 103.8C242.271 42.8244 234.144 23.9275 234.144 23.9275C234.144 23.9275 282.777 43.5641 329.755 113.439C333.987 120.389 337.765 127.099 341.148 133.588L342.949 115.731C339.991 110.567 336.821 105.294 333.372 99.8958C278.054 21.9207 220.254 2.45248 220.254 2.45248C220.254 2.45248 230.051 24.5208 238.222 97.552C179.507 66.7018 137.757 67.3757 137.757 67.3757C137.757 67.3757 154.597 85.0933 187.18 152.258C187.495 152.902 187.81 153.547 188.118 154.191C120.22 144.816 79.9932 160.608 79.9932 160.608C79.9932 160.608 97.3465 169.082 139.053 207.073C87.2274 217.364 60.6777 236.649 60.6777 236.649C60.6777 236.649 84.6354 241.476 149.875 277.731C201.019 306.15 266.427 342.999 322.909 314.28L324.073 302.744C271.728 333.052 210.897 299.185 163.904 273.373L163.911 273.366ZM251.995 181.233C254.587 190.476 257.692 199.463 261.484 207.974C250.435 205.513 238.296 203.536 224.969 202.203C218.328 190.967 212.368 179.373 206.825 168.225C215.795 169.99 225.262 172.246 235.206 175.11C241.085 177.087 246.665 179.138 251.988 181.233H251.995ZM158.046 82.9399C158.046 82.9399 191.61 84.3755 239.687 110.597C241.832 129.523 244.417 149.68 248.913 169.148C242.689 166.819 236.158 164.555 229.267 162.402C219.39 159.831 209.952 157.81 200.917 156.213C172.566 98.5775 158.039 82.9326 158.039 82.9326L158.046 82.9399ZM104.442 168.1C104.442 168.1 137.662 157.282 193.851 165.94C199.54 177.512 205.625 189.48 212.324 201.141C210.106 200.994 207.865 200.862 205.588 200.752C185.606 200.752 167.675 202.334 151.764 204.817C118.434 175.132 104.442 168.1 104.442 168.1Z" fill="#E2983E"/>
</g>
<defs>
<clipPath id="clip0_6628_13883">
<rect width="342" height="336" fill="white"/>
</clipPath>
</defs>
</svg>
