<?xml version="1.0" encoding="UTF-8"?>
<svg width="24px" height="24px" viewBox="0 0 24 24" version="1.1" xmlns="http://www.w3.org/2000/svg" xmlns:xlink="http://www.w3.org/1999/xlink">
    <title>Icons/others/needs_approval</title>
    <g id="Symbols" stroke="none" stroke-width="1" fill="none" fill-rule="evenodd">
        <g id="Icons/others/needs_approval">
            <rect id="Size" fill="#D8D8D8" opacity="0" x="0" y="0" width="24" height="24"></rect>
            <path d="M13.0976567,1.05423002 L12.9000026,3.04443927 C12.6024154,3.01488492 12.3021878,3 12,3 L12,1 C12.3682231,1 12.7344159,1.0181554 13.0976567,1.05423002 Z M16.2965078,1.87190629 L15.5142014,3.71255745 C15.2384285,3.59534949 14.9567585,3.49200432 14.6700894,3.40297697 L15.263259,1.49296394 C15.6141963,1.60195029 15.9589878,1.72845485 16.2965078,1.87190629 Z M19.1653292,3.65557811 L17.8616508,5.17229253 C17.6338015,4.97644663 17.3963633,4.79205693 17.1502644,4.61988848 L18.2967386,2.98110937 C18.5972691,3.19135765 18.8871708,3.41648947 19.1653292,3.65557811 Z M21.3016473,6.12803218 L19.6115691,7.19744117 C19.451038,6.94374019 19.2778836,6.69814254 19.0928274,6.46158825 L20.6680737,5.22927385 C20.8940542,5.51814081 21.1055382,5.81810415 21.3016473,6.12803218 Z M22.6334357,9.17601223 L20.7002685,9.68871522 C20.6232806,9.39842935 20.531804,9.11267825 20.4262538,8.83233772 L22.2979831,8.12761835 C22.4271926,8.47079775 22.5391839,8.82063208 22.6334357,9.17601223 Z M22.9917064,12.4304413 L20.9931944,12.3533078 C20.9977735,12.2346641 20.9999994,12.1168237 20.9999948,11.9901731 C20.999799,11.8068459 20.9941241,11.6242319 20.9830162,11.4424802 L22.9792915,11.3204764 C22.992838,11.5421299 22.9997551,11.7647178 22.9999942,11.9890641 C22.9999942,12.1422388 22.9972884,12.2858126 22.9917064,12.4304413 Z M22.3731739,15.6664321 L20.487679,14.9994173 C20.5875376,14.7171402 20.6732407,14.429686 20.7443922,14.1379177 L22.6874506,14.6117574 C22.6003472,14.9689392 22.4954226,15.3208637 22.3731739,15.6664321 Z M20.78212,18.6223716 L19.1862317,17.4169088 C19.3672682,17.1772381 19.5362408,16.9287226 19.6924441,16.6723058 L21.4004755,17.7128002 C21.2096246,18.0260929 21.0032193,18.3296625 20.78212,18.6223716 Z M18.4391808,20.9175496 L17.2668941,19.2971349 C17.5101766,19.1211325 17.7446154,18.9330623 17.9692891,18.7337026 L19.2967135,20.2296787 C19.0224524,20.4730388 18.7362396,20.7026429 18.4391808,20.9175496 Z M15.414987,22.4586997 L14.7940234,20.5575411 C15.0794018,20.4643297 15.3596139,20.3568591 15.6337542,20.235599 L16.4427984,22.0646554 C16.1073082,22.2130524 15.7643273,22.3445969 15.414987,22.4586997 Z M12.2603758,22.9969689 L12.2137828,20.9975117 C12.5156193,20.9904781 12.8152883,20.9685512 13.1120897,20.9319605 L13.3568039,22.9169327 C12.9942817,22.9616257 12.6284912,22.9883908 12.2603758,22.9969689 Z M8.97309035,22.5775191 L9.52296278,20.6545942 C9.81083103,20.7369119 10.10319,20.8048317 10.3992161,20.8580108 L10.0455904,22.8264997 C9.68333795,22.7614236 9.32548276,22.678288 8.97309035,22.5775191 Z M5.94206387,21.1813397 L7.04523003,19.5130998 C7.29564451,19.6786927 7.55414974,19.8316724 7.81979823,19.971397 L6.8887773,21.7414817 C6.56401241,21.5706634 6.24805808,21.3836862 5.94206387,21.1813397 Z M3.49907854,18.9791543 L5.04408797,17.7091363 C5.2348466,17.941199 5.43707919,18.1636902 5.64995579,18.3757165 L4.23857491,19.7927571 C3.97875978,19.5339797 3.73192805,19.2624217 3.49907854,18.9791543 Z M1.77873437,16.0702928 L3.636425,15.3293572 C3.74761077,15.6081247 3.87272793,15.8809914 4.01124248,16.1470276 L2.23728881,17.0706554 C2.06786338,16.7452507 1.91478988,16.4114142 1.77873437,16.0702928 Z M1.03956817,12.9382789 L3.03243423,12.7695043 C3.05786062,13.0697354 3.09816065,13.3672312 3.1530643,13.6612408 L1.18705018,14.0283763 C1.11990201,13.6687972 1.07063396,13.3050992 1.03956817,12.9382789 Z M1.25781817,9.6239903 L3.2108936,10.0546832 C3.14648008,10.346781 3.09660975,10.6427018 3.06157604,10.9416691 L1.07516793,10.7088971 C1.11800154,10.3433677 1.1790039,9.98139162 1.25781817,9.6239903 Z M2.45801984,6.52622823 L4.19178042,7.52326095 C4.04215914,7.78344046 3.90564807,8.05095957 3.78282493,8.32487707 L1.9578872,7.50658478 C2.10813122,7.17151383 2.27508105,6.84434422 2.45801984,6.52622823 Z M4.50894134,3.94693448 L5.87148147,5.41099882 C5.65155399,5.61567563 5.44189666,5.83118561 5.2433642,6.0566557 L3.74232938,4.73495435 C3.98464388,4.4597617 4.24052345,4.19673918 4.50894134,3.94693448 Z M7.29442577,2.05574981 L8.15146197,3.8628162 C7.88030753,3.99141644 7.61580076,4.13355788 7.35888558,4.28864132 L6.32531909,2.57640878 C6.63937959,2.38683032 6.96279905,2.2130302 7.29442577,2.05574981 Z M10.3880865,1.11755541 L10.6792352,3.09625004 C10.3815682,3.14004931 10.0872424,3.19864604 9.79705773,3.27172373 L9.3086438,1.33227746 C9.66380565,1.24283647 10.0239677,1.17113251 10.3880865,1.11755541 Z" id="Shape" fill-opacity="0.6" fill="#000000"></path>
            <path d="M17.4315448,8.2783232 C17.8301158,7.89601504 18.4631436,7.90919875 18.8454517,8.30776984 C19.1983516,8.67568161 19.2142642,9.24336708 18.9011372,9.62922203 L18.8160051,9.7216768 L9.87941392,18.2936275 L5.29289322,13.7071068 C4.90236893,13.3165825 4.90236893,12.6834175 5.29289322,12.2928932 C5.65337718,11.9324093 6.22060824,11.9046797 6.61289944,12.2097046 L6.70710678,12.2928932 L9.908,15.493 L17.4315448,8.2783232 Z" id="Path-2" fill-opacity="0.6" fill="#000000"></path>
        </g>
    </g>
</svg>