<svg width="19" height="20" viewBox="0 0 19 20" fill="none" xmlns="http://www.w3.org/2000/svg">
<path d="M15.5 5.45455C16.9912 5.45455 18.2 4.2335 18.2 2.72727C18.2 1.22104 16.9912 0 15.5 0C14.0089 0 12.8 1.22104 12.8 2.72727C12.8 4.2335 14.0089 5.45455 15.5 5.45455Z" fill="#1B4CA1"/>
<path d="M3.80007 7.27273V5.45455H11.9271C10.8381 4 10.9551 2.53636 11.0991 1.81818H2.00907C1.01907 1.81818 0.209073 2.62727 0.209073 3.63636L0.200073 20L3.80007 16.3636H16.4001C17.3901 16.3636 18.2001 15.5455 18.2001 14.5455V6.33636C17.4441 6.91818 16.5171 7.27273 15.5001 7.27273H3.80007ZM11.0001 12.7273H3.80007V10.9091H11.0001V12.7273ZM14.6001 10H3.80007V8.18182H14.6001V10Z" fill="#1B4CA1"/>
</svg>
