<svg width="21" height="20" viewBox="0 0 21 20" fill="none" xmlns="http://www.w3.org/2000/svg">
<path d="M9.80005 12H7.80005C7.80005 7.03 11.83 3 16.8 3V5C12.93 5 9.80005 8.13 9.80005 12ZM16.8 9V7C14.04 7 11.8 9.24 11.8 12H13.8C13.8 10.34 15.14 9 16.8 9ZM5.80005 2C5.80005 0.89 4.91005 0 3.80005 0C2.69005 0 1.80005 0.89 1.80005 2C1.80005 3.11 2.69005 4 3.80005 4C4.91005 4 5.80005 3.11 5.80005 2ZM10.25 2.5H8.25005C8.01005 3.92 6.79005 5 5.30005 5H2.30005C1.47005 5 0.800049 5.67 0.800049 6.5V9H6.80005V6.74C8.66005 6.15 10.05 4.51 10.25 2.5ZM17.8 15C18.91 15 19.8 14.11 19.8 13C19.8 11.89 18.91 11 17.8 11C16.69 11 15.8 11.89 15.8 13C15.8 14.11 16.69 15 17.8 15ZM19.3 16H16.3C14.81 16 13.59 14.92 13.35 13.5H11.35C11.55 15.51 12.94 17.15 14.8 17.74V20H20.8V17.5C20.8 16.67 20.13 16 19.3 16Z" fill="#1B4CA1"/>
</svg>
