<svg width="21" height="18" viewBox="0 0 21 18" fill="none" xmlns="http://www.w3.org/2000/svg">
<path d="M8.40002 8C10.6092 8 12.4 6.20914 12.4 4C12.4 1.79086 10.6092 0 8.40002 0C6.19089 0 4.40002 1.79086 4.40002 4C4.40002 6.20914 6.19089 8 8.40002 8Z" fill="#1B4CA1"/>
<path d="M8.75002 10.01C6.02002 9.91 0.400024 11.27 0.400024 14V16H9.94002C7.47002 13.24 8.71002 10.11 8.75002 10.01Z" fill="#1B4CA1"/>
<path d="M17.83 14.02C18.19 13.43 18.4 12.74 18.4 12C18.4 9.79 16.61 8 14.4 8C12.19 8 10.4 9.79 10.4 12C10.4 14.21 12.19 16 14.4 16C15.14 16 15.83 15.78 16.42 15.43L18.99 18L20.4 16.59L17.83 14.02ZM14.4 14C13.3 14 12.4 13.1 12.4 12C12.4 10.9 13.3 10 14.4 10C15.5 10 16.4 10.9 16.4 12C16.4 13.1 15.5 14 14.4 14Z" fill="#1B4CA1"/>
</svg>
