<svg width="24" height="14" viewBox="0 0 24 14" fill="none" xmlns="http://www.w3.org/2000/svg">
<path d="M12 7.875C13.63 7.875 15.07 8.33 16.24 8.925C17.32 9.485 18 10.745 18 12.11V14H6V12.1217C6 10.745 6.68 9.485 7.76 8.93667C8.93 8.33 10.37 7.875 12 7.875ZM4 8.16667C5.1 8.16667 6 7.11667 6 5.83333C6 4.55 5.1 3.5 4 3.5C2.9 3.5 2 4.55 2 5.83333C2 7.11667 2.9 8.16667 4 8.16667ZM5.13 9.45C4.76 9.38 4.39 9.33333 4 9.33333C3.01 9.33333 2.07 9.57833 1.22 10.01C0.48 10.3833 0 11.2233 0 12.1683V14H4.5V12.1217C4.5 11.1533 4.73 10.2433 5.13 9.45ZM20 8.16667C21.1 8.16667 22 7.11667 22 5.83333C22 4.55 21.1 3.5 20 3.5C18.9 3.5 18 4.55 18 5.83333C18 7.11667 18.9 8.16667 20 8.16667ZM24 12.1683C24 11.2233 23.52 10.3833 22.78 10.01C21.93 9.57833 20.99 9.33333 20 9.33333C19.61 9.33333 19.24 9.38 18.87 9.45C19.27 10.2433 19.5 11.1533 19.5 12.1217V14H24V12.1683ZM12 0C13.66 0 15 1.56333 15 3.5C15 5.43667 13.66 7 12 7C10.34 7 9 5.43667 9 3.5C9 1.56333 10.34 0 12 0Z" fill="#1B4CA1"/>
</svg>
