<?xml version="1.0" encoding="UTF-8"?>
<svg width="123px" height="55px" viewBox="0 0 123 55" version="1.1" xmlns="http://www.w3.org/2000/svg" xmlns:xlink="http://www.w3.org/1999/xlink">
    <title>Group 21@2x</title>
    <g id="Mobile-Application" stroke="none" stroke-width="1" fill="none" fill-rule="evenodd">
        <g id="Completed-Empty-Mobile" transform="translate(-144, -625)">
            <g id="Group-21" transform="translate(144, 625)">
                <path d="M26.1944444,46.9913211 L78.0138889,46.9913211 C78.3071528,46.9913211 78.5930139,46.9594986 78.8680556,46.8998312 C79.1430972,46.9594986 79.4289583,46.9913211 79.7222222,46.9913211 L109.333333,46.9913211 C111.534806,46.9913211 113.319444,45.210394 113.319444,43.0135005 C113.319444,40.816607 111.534806,39.0356798 109.333333,39.0356798 L105.916667,39.0356798 C103.715194,39.0356798 101.930556,37.2547527 101.930556,35.0578592 C101.930556,32.8609657 103.715194,31.0800386 105.916667,31.0800386 L116.736111,31.0800386 C118.937583,31.0800386 120.722222,29.2991114 120.722222,27.1022179 C120.722222,24.9053244 118.937583,23.1243973 116.736111,23.1243973 L104.208333,23.1243973 C106.409806,23.1243973 108.194444,21.3434702 108.194444,19.1465767 C108.194444,16.9496832 106.409806,15.168756 104.208333,15.168756 L67.7638889,15.168756 C69.9653611,15.168756 71.75,13.3878289 71.75,11.1909354 C71.75,8.99404188 69.9653611,7.21311475 67.7638889,7.21311475 L35.3055556,7.21311475 C33.1040833,7.21311475 31.3194444,8.99404188 31.3194444,11.1909354 C31.3194444,13.3878289 33.1040833,15.168756 35.3055556,15.168756 L12.5277778,15.168756 C10.3263056,15.168756 8.54166667,16.9496832 8.54166667,19.1465767 C8.54166667,21.3434702 10.3263056,23.1243973 12.5277778,23.1243973 L26.7638889,23.1243973 C28.9653611,23.1243973 30.75,24.9053244 30.75,27.1022179 C30.75,29.2991114 28.9653611,31.0800386 26.7638889,31.0800386 L3.98611111,31.0800386 C1.78463889,31.0800386 0,32.8609657 0,35.0578592 C0,37.2547527 1.78463889,39.0356798 3.98611111,39.0356798 L26.1944444,39.0356798 C23.9929722,39.0356798 22.2083333,40.816607 22.2083333,43.0135005 C22.2083333,45.210394 23.9929722,46.9913211 26.1944444,46.9913211 Z M119.013889,46.9913211 C121.215361,46.9913211 123,45.210394 123,43.0135005 C123,40.816607 121.215361,39.0356798 119.013889,39.0356798 C116.812417,39.0356798 115.027778,40.816607 115.027778,43.0135005 C115.027778,45.210394 116.812417,46.9913211 119.013889,46.9913211 Z" id="Shape" fill="#DDE8FB"></path>
                <g id="Group-11" transform="translate(29.8456, 0)">
                    <rect id="Rectangle" fill="#FFFFFF" x="1.80882353" y="10.8196721" width="53.3602941" height="42.3770492"></rect>
                    <path d="M60.9967386,0 C62.7723471,0.00196403217 64.2112727,1.4419435 64.2132353,3.21885246 L64.2132353,42.7647541 C64.2112727,44.5416631 62.7723471,45.9816425 60.9967386,45.9836066 L56.0732941,45.983 L56.0732941,44.144 L60.9967386,44.1442623 C61.7130315,44.1436657 62.3015394,43.5968574 62.3688252,42.8975627 L62.3752372,42.7647541 L62.3752372,38.6262295 L56.0732941,38.626 L56.0732941,36.786 L62.3752372,36.7868852 L62.3752372,7.35737705 L9.07329222,7.35737705 L9.07229412,10.819 L7.23529412,10.819 L7.23529412,3.21885246 C7.23718904,1.50321622 8.57865469,0.10167359 10.2693533,0.00528769158 L10.4517908,0 L60.9967386,0 Z M60.9967386,1.83934426 L10.4517908,1.83934426 C9.69072958,1.83997815 9.07392565,2.45723384 9.07329222,3.21885246 L9.07329222,5.51803279 L62.3752372,5.51803279 L62.3752372,3.21885246 C62.3746038,2.45723384 61.7577998,1.83997815 60.9967386,1.83934426 Z M11.7935294,3.01531846 C12.2131034,3.01531846 12.5532353,3.35281948 12.5532353,3.76914808 C12.5532353,4.18547668 12.2131034,4.52297769 11.7935294,4.52297769 L11.0338235,4.52297769 C10.6142496,4.52297769 10.2741176,4.18547668 10.2741176,3.76914808 C10.2741176,3.35281948 10.6142496,3.01531846 11.0338235,3.01531846 Z M14.8323529,3.01531846 C15.2519269,3.01531846 15.5920588,3.35281948 15.5920588,3.76914808 C15.5920588,4.18547668 15.2519269,4.52297769 14.8323529,4.52297769 L14.0726471,4.52297769 C13.6530731,4.52297769 13.3129412,4.18547668 13.3129412,3.76914808 C13.3129412,3.35281948 13.6530731,3.01531846 14.0726471,3.01531846 Z M18.6308824,3.01531846 C19.0504563,3.01531846 19.3905882,3.35281948 19.3905882,3.76914808 C19.3905882,4.18547668 19.0504563,4.52297769 18.6308824,4.52297769 L17.8711765,4.52297769 C17.4516025,4.52297769 17.1114706,4.18547668 17.1114706,3.76914808 C17.1114706,3.35281948 17.4516025,3.01531846 17.8711765,3.01531846 Z" id="Combined-Shape" fill="#7FAEFF"></path>
                    <path d="M45.2205882,43.2786885 C48.6800736,43.2786885 52.0201733,42.7691047 55.1694831,41.8211225 L55.1691176,53.1967213 L1.80882353,53.1967213 L1.80882353,10.8196721 L10.8997294,10.8197614 C11.8403858,28.9040164 26.846633,43.2786885 45.2205882,43.2786885 Z" id="Combined-Shape" fill="#7FAEFF" opacity="0.148094541"></path>
                    <g id="video" transform="translate(0, 9.0164)" fill="#1B4CA1">
                        <path d="M53.7614445,0 L3.21649668,0 C1.44088818,0.00196403217 0.00196259475,1.4419435 0,3.21885246 L0,42.7647541 C0.00196259475,44.5416631 1.44088818,45.9816425 3.21649668,45.9836066 L53.7614445,45.9836066 C55.537053,45.9816425 56.9759786,44.5416631 56.9779412,42.7647541 L56.9779412,3.21885246 C56.9759786,1.4419435 55.537053,0.00196403217 53.7614445,0 L53.7614445,0 Z M55.1399431,42.7647541 C55.1393096,43.5263727 54.5225057,44.1436284 53.7614445,44.1442623 L3.21649668,44.1442623 C2.45543547,44.1436284 1.83863153,43.5263727 1.8379981,42.7647541 L1.8379981,38.6262295 L55.1399431,38.6262295 L55.1399431,42.7647541 Z M55.1399431,36.7868852 L1.8379981,36.7868852 L1.8379981,7.35737705 L55.1399431,7.35737705 L55.1399431,36.7868852 Z M55.1399431,5.51803279 L1.8379981,5.51803279 L1.8379981,3.21885246 C1.83863153,2.45723384 2.45543547,1.83997815 3.21649668,1.83934426 L53.7614445,1.83934426 C54.5225057,1.83997815 55.1393096,2.45723384 55.1399431,3.21885246 L55.1399431,5.51803279 Z" id="Shape"></path>
                        <path d="M3.79852941,4.52297769 L4.55823529,4.52297769 C4.97780927,4.52297769 5.31794118,4.18547668 5.31794118,3.76914808 C5.31794118,3.35281948 4.97780927,3.01531846 4.55823529,3.01531846 L3.79852941,3.01531846 C3.37895544,3.01531846 3.03882353,3.35281948 3.03882353,3.76914808 C3.03882353,4.18547668 3.37895544,4.52297769 3.79852941,4.52297769 Z" id="Path"></path>
                        <path d="M6.83735294,4.52297769 L7.59705882,4.52297769 C8.0166328,4.52297769 8.35676471,4.18547668 8.35676471,3.76914808 C8.35676471,3.35281948 8.0166328,3.01531846 7.59705882,3.01531846 L6.83735294,3.01531846 C6.41777897,3.01531846 6.07764706,3.35281948 6.07764706,3.76914808 C6.07764706,4.18547668 6.41777897,4.52297769 6.83735294,4.52297769 Z" id="Path"></path>
                        <path d="M10.6358824,4.52297769 L11.3955882,4.52297769 C11.8151622,4.52297769 12.1552941,4.18547668 12.1552941,3.76914808 C12.1552941,3.35281948 11.8151622,3.01531846 11.3955882,3.01531846 L10.6358824,3.01531846 C10.2163084,3.01531846 9.87617647,3.35281948 9.87617647,3.76914808 C9.87617647,4.18547668 10.2163084,4.52297769 10.6358824,4.52297769 Z" id="Path"></path>
                        <path d="M28.4889706,12.0612739 C22.824722,12.0612739 18.2329412,16.6175376 18.2329412,22.2379737 C18.2329412,27.8584098 22.824722,32.4146735 28.4889706,32.4146735 C34.1532192,32.4146735 38.745,27.8584098 38.745,22.2379737 C38.7385773,16.6201795 34.1505567,12.0676469 28.4889706,12.0612739 L28.4889706,12.0612739 Z M28.4889706,30.5643644 C23.8545853,30.5643644 20.0976738,26.8365123 20.0976738,22.2379737 C20.0976738,17.639435 23.8545853,13.9115829 28.4889706,13.9115829 C33.1233558,13.9115829 36.8802674,17.639435 36.8802674,22.2379737 C36.8749367,26.8343196 33.121146,30.559075 28.4889706,30.5643644 L28.4889706,30.5643644 Z" id="Shape"></path>
                        <path d="M33.0044976,21.8616418 L27.3066835,18.2431428 C27.0150691,18.0586442 26.6406102,18.0417372 26.3319846,18.1991344 C26.023359,18.3565317 25.830507,18.6627641 25.83,18.9962429 L25.83,26.2332409 C25.8302628,26.5668217 26.0230775,26.8732373 26.3317973,27.0306827 C26.6405171,27.188128 27.0151154,27.1710898 27.3066835,26.986341 L33.0044976,23.367842 C33.2685303,23.1997772 33.4270588,22.9172433 33.4270588,22.6147419 C33.4270588,22.3122405 33.2685303,22.0297066 33.0044976,21.8616418 L33.0044976,21.8616418 Z M27.7292714,24.5427234 L27.7292714,20.6867604 L30.7657315,22.6147419 L27.7292714,24.5427234 Z" id="Shape"></path>
                        <path d="M49.966489,40.8952567 L12.6142831,40.8952567 C12.6142831,40.3748459 12.1962043,39.9529696 11.6804779,39.9529696 C11.1647516,39.9529696 10.7466728,40.3748459 10.7466728,40.8952567 L7.01145221,40.8952567 C6.49572586,40.8952567 6.07764706,41.3171329 6.07764706,41.8375437 C6.07764706,42.3579544 6.49572586,42.7798307 7.01145221,42.7798307 L10.7466728,42.7798307 C10.7466728,43.3002414 11.1647516,43.7221177 11.6804779,43.7221177 C12.1962043,43.7221177 12.6142831,43.3002414 12.6142831,42.7798307 L49.966489,42.7798307 C50.4822153,42.7798307 50.9002941,42.3579544 50.9002941,41.8375437 C50.9002941,41.3171329 50.4822153,40.8952567 49.966489,40.8952567 Z" id="Path"></path>
                    </g>
                </g>
            </g>
        </g>
    </g>
</svg>