<svg width="100" height="100" viewBox="0 0 100 100" fill="none" xmlns="http://www.w3.org/2000/svg">
<g clip-path="url(#clip0_5_3170)">
<path d="M50 100C77.6142 100 100 77.6142 100 50C100 22.3858 77.6142 0 50 0C22.3858 0 0 22.3858 0 50C0 77.6142 22.3858 100 50 100Z" fill="#FCC419"/>
<path d="M31.6471 29C27.6419 29 24 32.3838 24 38.0044C24 43.625 27.6419 46.9993 31.6471 46.9993C35.6618 46.9993 39.2941 43.6154 39.2941 38.0044C39.2941 32.3934 35.7 29 31.6471 29Z" fill="black"/>
<path d="M68.3529 29C64.3478 29 60.7059 32.3838 60.7059 38.0044C60.7059 43.625 64.3478 46.9993 68.3529 46.9993C72.3581 46.9993 76 43.6154 76 38.0044C76 32.3934 72.3581 29 68.3529 29Z" fill="black"/>
<path d="M50.9368 64.6064C59.6066 64.5299 67.9037 68.1814 73.7059 74.624C74.1456 75.1307 74.2507 75.8476 73.9735 76.4593C73.6963 77.0807 73.0846 77.4821 72.4059 77.4917C72.1 77.4917 71.7941 77.4057 71.5265 77.2527C66.9191 74.6049 59.2147 71.3167 50.9559 71.3167H50.8221C42.5728 71.3167 34.8588 74.6049 30.261 77.2527C29.9934 77.4057 29.6875 77.4917 29.3816 77.4917C28.703 77.4821 28.1008 77.0807 27.8236 76.4593C27.5368 75.8476 27.6419 75.1307 28.0912 74.624C33.8934 68.1814 42.1809 64.5299 50.8508 64.6064" fill="black"/>
</g>
<defs>
<clipPath id="clip0_5_3170">
<rect width="100" height="100" fill="white"/>
</clipPath>
</defs>
</svg>
