<svg width="100" height="100" viewBox="0 0 100 100" fill="none" xmlns="http://www.w3.org/2000/svg">
<g clip-path="url(#clip0_5_3124)">
<path d="M50 100C77.6142 100 100 77.6142 100 50C100 22.3858 77.6142 0 50 0C22.3858 0 0 22.3858 0 50C0 77.6142 22.3858 100 50 100Z" fill="#FCC419"/>
<path d="M49.9762 62.6582C60.8778 62.6582 67.9436 70.6325 69.8614 74.3673C70.568 75.7804 70.568 76.9917 69.9624 77.4964C69.3163 77.9002 68.4886 77.9002 67.8426 77.4964C67.5196 77.3652 67.2168 77.1936 66.9342 76.9917C61.9881 73.4386 56.0629 71.5006 49.9762 71.44C43.9097 71.5208 37.9946 73.4184 33.0183 76.8908C32.7356 77.0926 32.4328 77.2642 32.1098 77.3955C31.4638 77.7992 30.6361 77.7992 29.9901 77.3955C29.3844 76.7898 29.3844 75.6795 30.091 74.2663C32.0089 70.6325 39.0747 62.6582 49.9762 62.6582Z" fill="black"/>
<path d="M60.474 22.9748C59.1012 24.2466 59.0205 26.3866 60.2923 27.7492C60.4942 27.9713 60.7264 28.1631 60.9787 28.3246C63.9262 30.515 67.237 32.1603 70.7699 33.1697C74.3331 34.058 78.0174 34.3305 81.6714 33.9772C83.5691 33.9268 85.0731 32.342 85.0226 30.4443C85.0125 30.1718 84.9722 29.8993 84.9015 29.6368C84.306 27.8906 82.6001 26.7701 80.763 26.9114C78.0578 27.1739 75.3324 27.0124 72.6878 26.4067C70.0835 25.6093 67.6206 24.3778 65.4201 22.7729C63.9262 21.6726 61.867 21.7534 60.474 22.9748Z" fill="black"/>
<path d="M39.4784 22.9748C40.8512 24.2466 40.932 26.3866 39.6601 27.7492C39.4583 27.9713 39.2261 28.1631 38.9737 28.3246C36.0263 30.515 32.7155 32.1603 29.1826 33.1697C25.6194 34.058 21.935 34.3305 18.281 33.9772C16.4338 33.947 14.9702 32.4228 15.0005 30.5756C15.0106 30.2526 15.061 29.9396 15.1519 29.6368C15.7474 27.8906 17.4533 26.7701 19.2904 26.9114C21.9956 27.1739 24.721 27.0124 27.3656 26.4067C29.9699 25.6093 32.4328 24.3778 34.6333 22.7729C36.0869 21.6726 38.1258 21.7534 39.4784 22.9748Z" fill="black"/>
<path d="M29.86 50.24C33.0964 50.24 35.72 47.5 35.72 44.12C35.72 40.74 33.0964 38 29.86 38C26.6236 38 24 40.74 24 44.12C24 47.5 26.6236 50.24 29.86 50.24Z" fill="black"/>
<path d="M70.23 50.24C73.4664 50.24 76.09 47.5 76.09 44.12C76.09 40.74 73.4664 38 70.23 38C66.9936 38 64.37 40.74 64.37 44.12C64.37 47.5 66.9936 50.24 70.23 50.24Z" fill="black"/>
</g>
<defs>
<clipPath id="clip0_5_3124">
<rect width="100" height="100" fill="white"/>
</clipPath>
</defs>
</svg>
