<svg width="24" height="20" viewBox="0 0 24 20" fill="none" xmlns="http://www.w3.org/2000/svg">
<path d="M23.6129 13.6846L19.8372 17.4604C19.4857 17.8118 18.9159 17.8118 18.5644 17.4604L14.7886 13.6846C14.4371 13.3331 14.4371 12.7633 14.7886 12.4118L15.1945 12.006C15.5531 11.6474 16.137 11.6557 16.4852 12.0244L18.0008 13.6291V6.79971H10.9677C10.729 6.79969 10.5001 6.70488 10.3313 6.53612L9.73125 5.93612C9.16429 5.36912 9.56584 4.39971 10.3677 4.39971H19.5008C19.9978 4.39971 20.4008 4.80264 20.4008 5.29971V13.6291L21.9164 12.0244C22.2645 11.6558 22.8485 11.6474 23.2071 12.006L23.6129 12.4118C23.9644 12.7633 23.9644 13.3332 23.6129 13.6846ZM13.6702 14.2633C13.5866 14.1797 13.4874 14.1134 13.3782 14.0682C13.269 14.023 13.152 13.9997 13.0338 13.9997H6.00075V7.17024L7.51635 8.77494C7.86458 9.14361 8.44845 9.15197 8.80707 8.79336L9.21289 8.38753C9.56438 8.03604 9.56438 7.46619 9.21289 7.11474L5.43717 3.33906C5.08568 2.98757 4.51583 2.98757 4.16438 3.33906L0.388616 7.11478C0.0371281 7.46627 0.0371281 8.03612 0.388616 8.38757L0.794441 8.79339C1.15302 9.15197 1.73693 9.14364 2.08515 8.77498L3.60075 7.17024V15.4997C3.60075 15.9968 4.00369 16.3997 4.50075 16.3997H13.6338C14.4357 16.3997 14.8372 15.4303 14.2703 14.8633L13.6702 14.2633Z" fill="#1B4CA1"/>
</svg>
