<svg width="167" height="88" xmlns="http://www.w3.org/2000/svg"><g id="Empty-state-for-search" stroke="none" stroke-width="1" fill="none" fill-rule="evenodd"><g id="Search-empty-state" transform="translate(-123 -390)"><g id="Group-10" transform="translate(72 391)"><g id="EmptyState" transform="translate(51)"><path d="M160 0a7 7 0 110 14h-40a7 7 0 110 14h22a7 7 0 110 14h-10.174c-4.874 0-8.826 3.134-8.826 7 0 2.577 2 4.911 6 7a7 7 0 110 14H46a7 7 0 110-14H7a7 7 0 110-14h40a7 7 0 100-14H22a7 7 0 110-14h40a7 7 0 110-14h98zm0 28a7 7 0 110 14 7 7 0 010-14z" id="Shape" fill="#F3F7FF"/><path d="M73.5 68C92.002 68 107 53.002 107 34.5 107 15.998 92.002 1 73.5 1 54.998 1 40 15.998 40 34.5 40 53.002 54.998 68 73.5 68z" id="Path" stroke="#1F64E7" stroke-width="2.5" fill="#F3F7FF" fill-rule="nonzero"/><path d="M68.132 60.494c1.759.325 3.548.493 5.368.506C88.136 61 100 49.136 100 34.5S88.136 8 73.5 8c-3.76 0-7.336.783-10.576 2.195a26.605 26.605 0 00-13.028 12.247A26.387 26.387 0 0047 34.5a26.403 26.403 0 006.684 17.596" id="Path" fill="#FFF"/><path d="M68.132 60.494c1.759.325 3.548.493 5.368.506C88.136 61 100 49.136 100 34.5S88.136 8 73.5 8c-3.76 0-7.336.783-10.576 2.195a26.605 26.605 0 00-13.028 12.247A26.387 26.387 0 0047 34.5a26.403 26.403 0 006.684 17.596m3.113 2.979a26.491 26.491 0 007.204 4.172" id="Path" stroke="#1F64E7" stroke-width="2.5" stroke-linecap="round"/><path id="Path" stroke="#1F64E7" stroke-width="2.5" d="M101 61l6 6"/><path d="M106.03 66.03a4.848 4.848 0 000 6.854l11.086 11.086a4.848 4.848 0 006.854-6.854L112.884 66.03a4.848 4.848 0 00-6.854 0z" id="Path" stroke="#1F64E7" stroke-width="2.5" fill="#E8F0FE"/><path id="Path" stroke="#FFF" stroke-width="2.5" stroke-linecap="round" d="M111 68l11 11"/><path d="M67 23c0 11.598 9.402 21 21 21 2.278 0 4.472-.363 6.526-1.034-3.353 8.321-11.503 14.195-21.026 14.195-12.515 0-22.66-10.146-22.66-22.661 0-11.34 8.33-20.735 19.205-22.399A20.913 20.913 0 0067 23z" id="Path" fill="#E8F0FE"/><path d="M74 16c-1.273 0-2.518.125-3.721.364m-3.634 1.112C59.804 20.351 55 27.114 55 35" id="Shape" stroke="#75A4FE" stroke-width="2.5" stroke-linecap="round"/><path d="M127.176 34.777H119M133.5 27h-17.176H133.5zm7 0h-2.221 2.221zM37.176 56.777H29M32.5 48H15.324 32.5zm-23 0H5.279 9.5z" id="Shape" stroke="#75A4FE" stroke-width="2.5" stroke-linecap="round" stroke-linejoin="round"/></g></g></g></g></svg>