<?xml version="1.0" encoding="UTF-8"?>
<svg width="24px" height="24px" viewBox="0 0 24 24" version="1.1" xmlns="http://www.w3.org/2000/svg" xmlns:xlink="http://www.w3.org/1999/xlink">
    <title>Icons/others/sent_for_approval</title>
    <g id="Symbols" stroke="none" stroke-width="1" fill="none" fill-rule="evenodd">
        <g id="Icons/others/sent_for_approval">
            <rect id="Size" fill="#D8D8D8" opacity="0" x="0" y="0" width="24" height="24"></rect>
            <path d="M6,2 L6,8 L6.01,8 L6,8.01 L10,12 L6,16 L6.01,16.01 L6,16.01 L6,22 L18,22 L18,16.01 L17.99,16.01 L18,16 L14,12 L18,8.01 L17.99,8 L18,8 L18,2 L6,2 Z M16,16.5 L16,20 L8,20 L8,16.5 L12,12.5 L16,16.5 Z M12,11.5 L8,7.5 L8,4 L16,4 L16,7.5 L12,11.5 Z" id="Shape" fill-opacity="0.6" fill="#000000"></path>
        </g>
    </g>
</svg>