<svg width="25" height="25" viewBox="0 0 25 25" fill="none" xmlns="http://www.w3.org/2000/svg">
<mask id="mask0_306_9621" style="mask-type:alpha" maskUnits="userSpaceOnUse" x="0" y="0" width="25" height="25">
<rect x="0.5" y="0.5" width="24" height="24" fill="#D9D9D9"/>
</mask>
<g mask="url(#mask0_306_9621)">
<path d="M10.95 16C11.35 16.4 11.8667 16.5958 12.5 16.5875C13.1333 16.5792 13.6 16.35 13.9 15.9L19.5 7.5L11.1 13.1C10.65 13.4 10.4125 13.8583 10.3875 14.475C10.3625 15.0917 10.55 15.6 10.95 16ZM12.5 4.5C13.4833 4.5 14.4292 4.6375 15.3375 4.9125C16.2458 5.1875 17.1 5.6 17.9 6.15L16 7.35C15.45 7.06667 14.8792 6.85417 14.2875 6.7125C13.6958 6.57083 13.1 6.5 12.5 6.5C10.2833 6.5 8.39583 7.27917 6.8375 8.8375C5.27917 10.3958 4.5 12.2833 4.5 14.5C4.5 15.2 4.59583 15.8917 4.7875 16.575C4.97917 17.2583 5.25 17.9 5.6 18.5H19.4C19.7833 17.8667 20.0625 17.2083 20.2375 16.525C20.4125 15.8417 20.5 15.1333 20.5 14.4C20.5 13.8 20.4292 13.2167 20.2875 12.65C20.1458 12.0833 19.9333 11.5333 19.65 11L20.85 9.1C21.35 9.88333 21.7458 10.7167 22.0375 11.6C22.3292 12.4833 22.4833 13.4 22.5 14.35C22.5167 15.3 22.4083 16.2083 22.175 17.075C21.9417 17.9417 21.6 18.7667 21.15 19.55C20.9667 19.85 20.7167 20.0833 20.4 20.25C20.0833 20.4167 19.75 20.5 19.4 20.5H5.6C5.25 20.5 4.91667 20.4167 4.6 20.25C4.28333 20.0833 4.03333 19.85 3.85 19.55C3.41667 18.8 3.08333 18.0042 2.85 17.1625C2.61667 16.3208 2.5 15.4333 2.5 14.5C2.5 13.1167 2.7625 11.8208 3.2875 10.6125C3.8125 9.40417 4.52917 8.34583 5.4375 7.4375C6.34583 6.52917 7.40833 5.8125 8.625 5.2875C9.84167 4.7625 11.1333 4.5 12.5 4.5Z" fill="white"/>
</g>
</svg>
