<svg width="25" height="25" viewBox="0 0 25 25" fill="none" xmlns="http://www.w3.org/2000/svg">
<g id="target">
<mask id="mask0_306_9633" style="mask-type:alpha" maskUnits="userSpaceOnUse" x="0" y="0" width="25" height="25">
<rect id="Bounding box" x="0.300781" y="0.5" width="24" height="24" fill="#D9D9D9"/>
</mask>
<g mask="url(#mask0_306_9633)">
<path id="target_2" d="M12.3008 22.5C10.9174 22.5 9.61745 22.2375 8.40078 21.7125C7.18411 21.1875 6.12578 20.475 5.22578 19.575C4.32578 18.675 3.61328 17.6167 3.08828 16.4C2.56328 15.1833 2.30078 13.8833 2.30078 12.5C2.30078 11.1167 2.56328 9.81667 3.08828 8.6C3.61328 7.38333 4.32578 6.325 5.22578 5.425C6.12578 4.525 7.18411 3.8125 8.40078 3.2875C9.61745 2.7625 10.9174 2.5 12.3008 2.5C13.6841 2.5 14.9841 2.7625 16.2008 3.2875C17.4174 3.8125 18.4758 4.525 19.3758 5.425C20.2758 6.325 20.9883 7.38333 21.5133 8.6C22.0383 9.81667 22.3008 11.1167 22.3008 12.5C22.3008 13.8833 22.0383 15.1833 21.5133 16.4C20.9883 17.6167 20.2758 18.675 19.3758 19.575C18.4758 20.475 17.4174 21.1875 16.2008 21.7125C14.9841 22.2375 13.6841 22.5 12.3008 22.5ZM12.3008 20.5C14.5341 20.5 16.4258 19.725 17.9758 18.175C19.5258 16.625 20.3008 14.7333 20.3008 12.5C20.3008 10.2667 19.5258 8.375 17.9758 6.825C16.4258 5.275 14.5341 4.5 12.3008 4.5C10.0674 4.5 8.17578 5.275 6.62578 6.825C5.07578 8.375 4.30078 10.2667 4.30078 12.5C4.30078 14.7333 5.07578 16.625 6.62578 18.175C8.17578 19.725 10.0674 20.5 12.3008 20.5ZM12.3008 18.5C10.6341 18.5 9.21745 17.9167 8.05078 16.75C6.88411 15.5833 6.30078 14.1667 6.30078 12.5C6.30078 10.8333 6.88411 9.41667 8.05078 8.25C9.21745 7.08333 10.6341 6.5 12.3008 6.5C13.9674 6.5 15.3841 7.08333 16.5508 8.25C17.7174 9.41667 18.3008 10.8333 18.3008 12.5C18.3008 14.1667 17.7174 15.5833 16.5508 16.75C15.3841 17.9167 13.9674 18.5 12.3008 18.5ZM12.3008 16.5C13.4008 16.5 14.3424 16.1083 15.1258 15.325C15.9091 14.5417 16.3008 13.6 16.3008 12.5C16.3008 11.4 15.9091 10.4583 15.1258 9.675C14.3424 8.89167 13.4008 8.5 12.3008 8.5C11.2008 8.5 10.2591 8.89167 9.47578 9.675C8.69245 10.4583 8.30078 11.4 8.30078 12.5C8.30078 13.6 8.69245 14.5417 9.47578 15.325C10.2591 16.1083 11.2008 16.5 12.3008 16.5ZM12.3008 14.5C11.7508 14.5 11.2799 14.3042 10.8883 13.9125C10.4966 13.5208 10.3008 13.05 10.3008 12.5C10.3008 11.95 10.4966 11.4792 10.8883 11.0875C11.2799 10.6958 11.7508 10.5 12.3008 10.5C12.8508 10.5 13.3216 10.6958 13.7133 11.0875C14.1049 11.4792 14.3008 11.95 14.3008 12.5C14.3008 13.05 14.1049 13.5208 13.7133 13.9125C13.3216 14.3042 12.8508 14.5 12.3008 14.5Z" fill="white"/>
</g>
</g>
</svg>
