<?xml version="1.0" encoding="UTF-8"?>
<svg width="24px" height="24px" viewBox="0 0 24 24" version="1.1" xmlns="http://www.w3.org/2000/svg" xmlns:xlink="http://www.w3.org/1999/xlink">
    <title>Icons/action/translate 2</title>
    <g id="Icons/action/translate-2" stroke="none" stroke-width="1" fill="none" fill-rule="evenodd">
        <rect id="Size" fill="#D8D8D8" opacity="0" x="0" y="0" width="24" height="24"></rect>
        <path d="M17.9090909,10.2 L22,21 L20.1818182,21 L19.1545455,18.3 L14.8363636,18.3 L13.8181818,21 L12,21 L16.0909091,10.2 L17.9090909,10.2 Z M17,12.603 L15.5272727,16.5 L18.4727273,16.5 L17,12.603 Z M6.49690881,3 C6.8426069,3 7.17838743,3.04958784 7.50425039,3.14876352 C7.83011334,3.24793921 8.11772282,3.39811953 8.36707883,3.59930448 C8.61643483,3.80048944 8.81620299,4.04842865 8.96638331,4.3431221 C9.11656363,4.63781556 9.19165379,4.98068006 9.19165379,5.37171561 C9.19165379,5.70041216 9.12081401,6.0007728 8.97913447,6.27279753 C8.83745492,6.54482226 8.63343637,6.78851108 8.36707883,7.00386399 C8.80911901,7.20221535 9.19590417,7.36656363 9.52743431,7.49690881 C9.85896445,7.62725399 10.1522411,7.69242658 10.4072643,7.69242658 C10.7132921,7.69242658 10.9782329,7.63575477 11.2020866,7.52241113 C11.4259402,7.40906749 11.5973725,7.29289026 11.7163833,7.17387944 L11.7163833,4.64064915 L9.56568779,4.64064915 L9.56568779,3.187017 L15.6267388,3.187017 L15.6267388,4.64064915 L13.5950541,4.64064915 L13.5950541,12.8693972 L11.7163833,12.8693972 L11.7163833,8.75502318 C11.5180319,8.82869655 11.3154302,8.88395157 11.1085781,8.92078825 C10.9017259,8.95762494 10.7019578,8.97604328 10.5092736,8.97604328 L10.36051,8.97604328 C10.3010046,8.97604328 10.2514168,8.97320969 10.2117465,8.9675425 C10.2457496,9.10922205 10.2726687,9.25940237 10.2925039,9.41808346 C10.312339,9.57676455 10.3222566,9.73827924 10.3222566,9.90262751 C10.3222566,10.25966 10.2542504,10.6152756 10.118238,10.9694745 C9.98222566,11.3236734 9.77679031,11.6410355 9.50193199,11.9215611 C9.22707367,12.2020866 8.88279238,12.4301906 8.4690881,12.6058733 C8.05538382,12.7815559 7.57367336,12.8693972 7.02395672,12.8693972 C6.54791345,12.8693972 6.10445647,12.7985574 5.69358578,12.6568779 C5.2827151,12.5151984 4.90443071,12.3267646 4.55873261,12.0915765 C4.21303452,11.8563885 3.90133952,11.5857805 3.6236476,11.2797527 C3.34595569,10.9737249 3.10085008,10.6549459 2.88833076,10.3234158 C2.67581144,9.99188563 2.49587841,9.65893869 2.34853168,9.32457496 C2.20118496,8.99021123 2.08500773,8.67851623 2,8.38948995 L3.52163833,7.47140649 C3.74265842,8.05512622 3.97926327,8.59067491 4.23145286,9.07805255 C4.48364245,9.56543019 4.75566718,9.98621844 5.04752705,10.3404173 C5.33938691,10.6946162 5.65108192,10.9694745 5.98261206,11.1649923 C6.31414219,11.36051 6.66409067,11.4582689 7.0324575,11.4582689 C7.27047913,11.4582689 7.47733127,11.4086811 7.65301391,11.3095054 C7.82869655,11.2103297 7.97462648,11.0799845 8.09080371,10.9184699 C8.20698094,10.7569552 8.29340546,10.5756054 8.35007728,10.3744204 C8.4067491,10.1732354 8.43508501,9.97063369 8.43508501,9.76661515 C8.43508501,9.42091705 8.3755796,9.12905719 8.25656878,8.89103555 C8.13755796,8.65301391 7.98312725,8.46316332 7.79327666,8.32148377 C7.60342607,8.17980422 7.38665636,8.07779495 7.14296754,8.01545595 C6.89927872,7.95311695 6.6555899,7.92194745 6.41190108,7.92194745 C6.2192169,7.92194745 5.8763524,7.96445131 5.38330757,8.04945904 L5.06877898,6.79134467 C5.29546625,6.76867594 5.53915507,6.72475528 5.79984544,6.65958269 C6.06053581,6.5944101 6.30280783,6.50515198 6.52666151,6.39180835 C6.7505152,6.27846471 6.9361154,6.13820196 7.08346213,5.97102009 C7.23080886,5.80383823 7.30448223,5.60690366 7.30448223,5.38021638 C7.30448223,5.19886656 7.27756311,5.04726945 7.22372488,4.92542504 C7.16988666,4.80358063 7.10329727,4.70440495 7.02395672,4.62789799 C6.94461618,4.55139104 6.86244204,4.49613601 6.77743431,4.46213292 C6.69242658,4.42812983 6.61591963,4.41112828 6.54791345,4.41112828 C6.45157135,4.41112828 6.34814529,4.42387944 6.23763524,4.44938176 C6.12712519,4.47488408 6.00811437,4.53438949 5.88060278,4.62789799 C5.75309119,4.72140649 5.61707883,4.85883565 5.47256569,5.04018547 C5.32805255,5.22153529 5.17362184,5.4680577 5.00927357,5.7797527 L3.41962906,5.04018547 C3.51597115,4.83616692 3.64914992,4.61514683 3.81916538,4.37712519 C3.98918083,4.13910355 4.19886656,3.91808346 4.44822257,3.71406491 C4.69757857,3.51004637 4.99227202,3.34003091 5.33230294,3.20401855 C5.67233385,3.06800618 6.06053581,3 6.49690881,3 Z" id="Combined-Shape" fill-opacity="0.6" fill="#000000"></path>
    </g>
</svg>